<?xml version="1.0" encoding="utf-8" standalone="no"?>
<!DOCTYPE svg PUBLIC "-//W3C//DTD SVG 1.1//EN"
  "http://www.w3.org/Graphics/SVG/1.1/DTD/svg11.dtd">
<svg xmlns:xlink="http://www.w3.org/1999/xlink" width="576pt" height="432pt" viewBox="0 0 576 432" xmlns="http://www.w3.org/2000/svg" version="1.1">
 <metadata>
  <rdf:RDF xmlns:dc="http://purl.org/dc/elements/1.1/" xmlns:cc="http://creativecommons.org/ns#" xmlns:rdf="http://www.w3.org/1999/02/22-rdf-syntax-ns#">
   <cc:Work>
    <dc:type rdf:resource="http://purl.org/dc/dcmitype/StillImage"/>
    <dc:date>2025-12-05T23:09:40.574708</dc:date>
    <dc:format>image/svg+xml</dc:format>
    <dc:creator>
     <cc:Agent>
      <dc:title>Matplotlib v3.10.0, https://matplotlib.org/</dc:title>
     </cc:Agent>
    </dc:creator>
   </cc:Work>
  </rdf:RDF>
 </metadata>
 <defs>
  <style type="text/css">*{stroke-linejoin: round; stroke-linecap: butt}</style>
 </defs>
 <g id="figure_1">
  <g id="patch_1">
   <path d="M 0 432 
L 576 432 
L 576 0 
L 0 0 
z
" style="fill: #ffffff"/>
  </g>
  <g id="axes_1">
   <g id="patch_2">
    <path d="M 72 384.48 
L 518.4 384.48 
L 518.4 51.84 
L 72 51.84 
z
" style="fill: #ffffff"/>
   </g>
   <g id="matplotlib.axis_1">
    <g id="xtick_1">
     <g id="line2d_1">
      <defs>
       <path id="m7da100da59" d="M 0 0 
L 0 3.5 
" style="stroke: #000000; stroke-width: 0.8"/>
      </defs>
      <g>
       <use xlink:href="#m7da100da59" x="90.585504" y="384.48" style="stroke: #000000; stroke-width: 0.8"/>
      </g>
     </g>
     <g id="text_1">
      <!-- −2 -->
      <g transform="translate(83.21441 399.078438) scale(0.1 -0.1)">
       <defs>
        <path id="DejaVuSans-2212" d="M 678 2272 
L 4684 2272 
L 4684 1741 
L 678 1741 
L 678 2272 
z
" transform="scale(0.015625)"/>
        <path id="DejaVuSans-32" d="M 1228 531 
L 3431 531 
L 3431 0 
L 469 0 
L 469 531 
Q 828 903 1448 1529 
Q 2069 2156 2228 2338 
Q 2531 2678 2651 2914 
Q 2772 3150 2772 3378 
Q 2772 3750 2511 3984 
Q 2250 4219 1831 4219 
Q 1534 4219 1204 4116 
Q 875 4013 500 3803 
L 500 4441 
Q 881 4594 1212 4672 
Q 1544 4750 1819 4750 
Q 2544 4750 2975 4387 
Q 3406 4025 3406 3419 
Q 3406 3131 3298 2873 
Q 3191 2616 2906 2266 
Q 2828 2175 2409 1742 
Q 1991 1309 1228 531 
z
" transform="scale(0.015625)"/>
       </defs>
       <use xlink:href="#DejaVuSans-2212"/>
       <use xlink:href="#DejaVuSans-32" transform="translate(83.789062 0)"/>
      </g>
     </g>
    </g>
    <g id="xtick_2">
     <g id="line2d_2">
      <g>
       <use xlink:href="#m7da100da59" x="169.716298" y="384.48" style="stroke: #000000; stroke-width: 0.8"/>
      </g>
     </g>
     <g id="text_2">
      <!-- −1 -->
      <g transform="translate(162.345204 399.078438) scale(0.1 -0.1)">
       <defs>
        <path id="DejaVuSans-31" d="M 794 531 
L 1825 531 
L 1825 4091 
L 703 3866 
L 703 4441 
L 1819 4666 
L 2450 4666 
L 2450 531 
L 3481 531 
L 3481 0 
L 794 0 
L 794 531 
z
" transform="scale(0.015625)"/>
       </defs>
       <use xlink:href="#DejaVuSans-2212"/>
       <use xlink:href="#DejaVuSans-31" transform="translate(83.789062 0)"/>
      </g>
     </g>
    </g>
    <g id="xtick_3">
     <g id="line2d_3">
      <g>
       <use xlink:href="#m7da100da59" x="248.847091" y="384.48" style="stroke: #000000; stroke-width: 0.8"/>
      </g>
     </g>
     <g id="text_3">
      <!-- 0 -->
      <g transform="translate(245.665841 399.078438) scale(0.1 -0.1)">
       <defs>
        <path id="DejaVuSans-30" d="M 2034 4250 
Q 1547 4250 1301 3770 
Q 1056 3291 1056 2328 
Q 1056 1369 1301 889 
Q 1547 409 2034 409 
Q 2525 409 2770 889 
Q 3016 1369 3016 2328 
Q 3016 3291 2770 3770 
Q 2525 4250 2034 4250 
z
M 2034 4750 
Q 2819 4750 3233 4129 
Q 3647 3509 3647 2328 
Q 3647 1150 3233 529 
Q 2819 -91 2034 -91 
Q 1250 -91 836 529 
Q 422 1150 422 2328 
Q 422 3509 836 4129 
Q 1250 4750 2034 4750 
z
" transform="scale(0.015625)"/>
       </defs>
       <use xlink:href="#DejaVuSans-30"/>
      </g>
     </g>
    </g>
    <g id="xtick_4">
     <g id="line2d_4">
      <g>
       <use xlink:href="#m7da100da59" x="327.977885" y="384.48" style="stroke: #000000; stroke-width: 0.8"/>
      </g>
     </g>
     <g id="text_4">
      <!-- 1 -->
      <g transform="translate(324.796635 399.078438) scale(0.1 -0.1)">
       <use xlink:href="#DejaVuSans-31"/>
      </g>
     </g>
    </g>
    <g id="xtick_5">
     <g id="line2d_5">
      <g>
       <use xlink:href="#m7da100da59" x="407.108678" y="384.48" style="stroke: #000000; stroke-width: 0.8"/>
      </g>
     </g>
     <g id="text_5">
      <!-- 2 -->
      <g transform="translate(403.927428 399.078438) scale(0.1 -0.1)">
       <use xlink:href="#DejaVuSans-32"/>
      </g>
     </g>
    </g>
    <g id="xtick_6">
     <g id="line2d_6">
      <g>
       <use xlink:href="#m7da100da59" x="486.239472" y="384.48" style="stroke: #000000; stroke-width: 0.8"/>
      </g>
     </g>
     <g id="text_6">
      <!-- 3 -->
      <g transform="translate(483.058222 399.078438) scale(0.1 -0.1)">
       <defs>
        <path id="DejaVuSans-33" d="M 2597 2516 
Q 3050 2419 3304 2112 
Q 3559 1806 3559 1356 
Q 3559 666 3084 287 
Q 2609 -91 1734 -91 
Q 1441 -91 1130 -33 
Q 819 25 488 141 
L 488 750 
Q 750 597 1062 519 
Q 1375 441 1716 441 
Q 2309 441 2620 675 
Q 2931 909 2931 1356 
Q 2931 1769 2642 2001 
Q 2353 2234 1838 2234 
L 1294 2234 
L 1294 2753 
L 1863 2753 
Q 2328 2753 2575 2939 
Q 2822 3125 2822 3475 
Q 2822 3834 2567 4026 
Q 2313 4219 1838 4219 
Q 1578 4219 1281 4162 
Q 984 4106 628 3988 
L 628 4550 
Q 988 4650 1302 4700 
Q 1616 4750 1894 4750 
Q 2613 4750 3031 4423 
Q 3450 4097 3450 3541 
Q 3450 3153 3228 2886 
Q 3006 2619 2597 2516 
z
" transform="scale(0.015625)"/>
       </defs>
       <use xlink:href="#DejaVuSans-33"/>
      </g>
     </g>
    </g>
    <g id="text_7">
     <!-- Heat Vulnerability Index (Cluster-Mean Centered) -->
     <g transform="translate(172.226562 412.756563) scale(0.1 -0.1)">
      <defs>
       <path id="DejaVuSans-48" d="M 628 4666 
L 1259 4666 
L 1259 2753 
L 3553 2753 
L 3553 4666 
L 4184 4666 
L 4184 0 
L 3553 0 
L 3553 2222 
L 1259 2222 
L 1259 0 
L 628 0 
L 628 4666 
z
" transform="scale(0.015625)"/>
       <path id="DejaVuSans-65" d="M 3597 1894 
L 3597 1613 
L 953 1613 
Q 991 1019 1311 708 
Q 1631 397 2203 397 
Q 2534 397 2845 478 
Q 3156 559 3463 722 
L 3463 178 
Q 3153 47 2828 -22 
Q 2503 -91 2169 -91 
Q 1331 -91 842 396 
Q 353 884 353 1716 
Q 353 2575 817 3079 
Q 1281 3584 2069 3584 
Q 2775 3584 3186 3129 
Q 3597 2675 3597 1894 
z
M 3022 2063 
Q 3016 2534 2758 2815 
Q 2500 3097 2075 3097 
Q 1594 3097 1305 2825 
Q 1016 2553 972 2059 
L 3022 2063 
z
" transform="scale(0.015625)"/>
       <path id="DejaVuSans-61" d="M 2194 1759 
Q 1497 1759 1228 1600 
Q 959 1441 959 1056 
Q 959 750 1161 570 
Q 1363 391 1709 391 
Q 2188 391 2477 730 
Q 2766 1069 2766 1631 
L 2766 1759 
L 2194 1759 
z
M 3341 1997 
L 3341 0 
L 2766 0 
L 2766 531 
Q 2569 213 2275 61 
Q 1981 -91 1556 -91 
Q 1019 -91 701 211 
Q 384 513 384 1019 
Q 384 1609 779 1909 
Q 1175 2209 1959 2209 
L 2766 2209 
L 2766 2266 
Q 2766 2663 2505 2880 
Q 2244 3097 1772 3097 
Q 1472 3097 1187 3025 
Q 903 2953 641 2809 
L 641 3341 
Q 956 3463 1253 3523 
Q 1550 3584 1831 3584 
Q 2591 3584 2966 3190 
Q 3341 2797 3341 1997 
z
" transform="scale(0.015625)"/>
       <path id="DejaVuSans-74" d="M 1172 4494 
L 1172 3500 
L 2356 3500 
L 2356 3053 
L 1172 3053 
L 1172 1153 
Q 1172 725 1289 603 
Q 1406 481 1766 481 
L 2356 481 
L 2356 0 
L 1766 0 
Q 1100 0 847 248 
Q 594 497 594 1153 
L 594 3053 
L 172 3053 
L 172 3500 
L 594 3500 
L 594 4494 
L 1172 4494 
z
" transform="scale(0.015625)"/>
       <path id="DejaVuSans-20" transform="scale(0.015625)"/>
       <path id="DejaVuSans-56" d="M 1831 0 
L 50 4666 
L 709 4666 
L 2188 738 
L 3669 4666 
L 4325 4666 
L 2547 0 
L 1831 0 
z
" transform="scale(0.015625)"/>
       <path id="DejaVuSans-75" d="M 544 1381 
L 544 3500 
L 1119 3500 
L 1119 1403 
Q 1119 906 1312 657 
Q 1506 409 1894 409 
Q 2359 409 2629 706 
Q 2900 1003 2900 1516 
L 2900 3500 
L 3475 3500 
L 3475 0 
L 2900 0 
L 2900 538 
Q 2691 219 2414 64 
Q 2138 -91 1772 -91 
Q 1169 -91 856 284 
Q 544 659 544 1381 
z
M 1991 3584 
L 1991 3584 
z
" transform="scale(0.015625)"/>
       <path id="DejaVuSans-6c" d="M 603 4863 
L 1178 4863 
L 1178 0 
L 603 0 
L 603 4863 
z
" transform="scale(0.015625)"/>
       <path id="DejaVuSans-6e" d="M 3513 2113 
L 3513 0 
L 2938 0 
L 2938 2094 
Q 2938 2591 2744 2837 
Q 2550 3084 2163 3084 
Q 1697 3084 1428 2787 
Q 1159 2491 1159 1978 
L 1159 0 
L 581 0 
L 581 3500 
L 1159 3500 
L 1159 2956 
Q 1366 3272 1645 3428 
Q 1925 3584 2291 3584 
Q 2894 3584 3203 3211 
Q 3513 2838 3513 2113 
z
" transform="scale(0.015625)"/>
       <path id="DejaVuSans-72" d="M 2631 2963 
Q 2534 3019 2420 3045 
Q 2306 3072 2169 3072 
Q 1681 3072 1420 2755 
Q 1159 2438 1159 1844 
L 1159 0 
L 581 0 
L 581 3500 
L 1159 3500 
L 1159 2956 
Q 1341 3275 1631 3429 
Q 1922 3584 2338 3584 
Q 2397 3584 2469 3576 
Q 2541 3569 2628 3553 
L 2631 2963 
z
" transform="scale(0.015625)"/>
       <path id="DejaVuSans-62" d="M 3116 1747 
Q 3116 2381 2855 2742 
Q 2594 3103 2138 3103 
Q 1681 3103 1420 2742 
Q 1159 2381 1159 1747 
Q 1159 1113 1420 752 
Q 1681 391 2138 391 
Q 2594 391 2855 752 
Q 3116 1113 3116 1747 
z
M 1159 2969 
Q 1341 3281 1617 3432 
Q 1894 3584 2278 3584 
Q 2916 3584 3314 3078 
Q 3713 2572 3713 1747 
Q 3713 922 3314 415 
Q 2916 -91 2278 -91 
Q 1894 -91 1617 61 
Q 1341 213 1159 525 
L 1159 0 
L 581 0 
L 581 4863 
L 1159 4863 
L 1159 2969 
z
" transform="scale(0.015625)"/>
       <path id="DejaVuSans-69" d="M 603 3500 
L 1178 3500 
L 1178 0 
L 603 0 
L 603 3500 
z
M 603 4863 
L 1178 4863 
L 1178 4134 
L 603 4134 
L 603 4863 
z
" transform="scale(0.015625)"/>
       <path id="DejaVuSans-79" d="M 2059 -325 
Q 1816 -950 1584 -1140 
Q 1353 -1331 966 -1331 
L 506 -1331 
L 506 -850 
L 844 -850 
Q 1081 -850 1212 -737 
Q 1344 -625 1503 -206 
L 1606 56 
L 191 3500 
L 800 3500 
L 1894 763 
L 2988 3500 
L 3597 3500 
L 2059 -325 
z
" transform="scale(0.015625)"/>
       <path id="DejaVuSans-49" d="M 628 4666 
L 1259 4666 
L 1259 0 
L 628 0 
L 628 4666 
z
" transform="scale(0.015625)"/>
       <path id="DejaVuSans-64" d="M 2906 2969 
L 2906 4863 
L 3481 4863 
L 3481 0 
L 2906 0 
L 2906 525 
Q 2725 213 2448 61 
Q 2172 -91 1784 -91 
Q 1150 -91 751 415 
Q 353 922 353 1747 
Q 353 2572 751 3078 
Q 1150 3584 1784 3584 
Q 2172 3584 2448 3432 
Q 2725 3281 2906 2969 
z
M 947 1747 
Q 947 1113 1208 752 
Q 1469 391 1925 391 
Q 2381 391 2643 752 
Q 2906 1113 2906 1747 
Q 2906 2381 2643 2742 
Q 2381 3103 1925 3103 
Q 1469 3103 1208 2742 
Q 947 2381 947 1747 
z
" transform="scale(0.015625)"/>
       <path id="DejaVuSans-78" d="M 3513 3500 
L 2247 1797 
L 3578 0 
L 2900 0 
L 1881 1375 
L 863 0 
L 184 0 
L 1544 1831 
L 300 3500 
L 978 3500 
L 1906 2253 
L 2834 3500 
L 3513 3500 
z
" transform="scale(0.015625)"/>
       <path id="DejaVuSans-28" d="M 1984 4856 
Q 1566 4138 1362 3434 
Q 1159 2731 1159 2009 
Q 1159 1288 1364 580 
Q 1569 -128 1984 -844 
L 1484 -844 
Q 1016 -109 783 600 
Q 550 1309 550 2009 
Q 550 2706 781 3412 
Q 1013 4119 1484 4856 
L 1984 4856 
z
" transform="scale(0.015625)"/>
       <path id="DejaVuSans-43" d="M 4122 4306 
L 4122 3641 
Q 3803 3938 3442 4084 
Q 3081 4231 2675 4231 
Q 1875 4231 1450 3742 
Q 1025 3253 1025 2328 
Q 1025 1406 1450 917 
Q 1875 428 2675 428 
Q 3081 428 3442 575 
Q 3803 722 4122 1019 
L 4122 359 
Q 3791 134 3420 21 
Q 3050 -91 2638 -91 
Q 1578 -91 968 557 
Q 359 1206 359 2328 
Q 359 3453 968 4101 
Q 1578 4750 2638 4750 
Q 3056 4750 3426 4639 
Q 3797 4528 4122 4306 
z
" transform="scale(0.015625)"/>
       <path id="DejaVuSans-73" d="M 2834 3397 
L 2834 2853 
Q 2591 2978 2328 3040 
Q 2066 3103 1784 3103 
Q 1356 3103 1142 2972 
Q 928 2841 928 2578 
Q 928 2378 1081 2264 
Q 1234 2150 1697 2047 
L 1894 2003 
Q 2506 1872 2764 1633 
Q 3022 1394 3022 966 
Q 3022 478 2636 193 
Q 2250 -91 1575 -91 
Q 1294 -91 989 -36 
Q 684 19 347 128 
L 347 722 
Q 666 556 975 473 
Q 1284 391 1588 391 
Q 1994 391 2212 530 
Q 2431 669 2431 922 
Q 2431 1156 2273 1281 
Q 2116 1406 1581 1522 
L 1381 1569 
Q 847 1681 609 1914 
Q 372 2147 372 2553 
Q 372 3047 722 3315 
Q 1072 3584 1716 3584 
Q 2034 3584 2315 3537 
Q 2597 3491 2834 3397 
z
" transform="scale(0.015625)"/>
       <path id="DejaVuSans-2d" d="M 313 2009 
L 1997 2009 
L 1997 1497 
L 313 1497 
L 313 2009 
z
" transform="scale(0.015625)"/>
       <path id="DejaVuSans-4d" d="M 628 4666 
L 1569 4666 
L 2759 1491 
L 3956 4666 
L 4897 4666 
L 4897 0 
L 4281 0 
L 4281 4097 
L 3078 897 
L 2444 897 
L 1241 4097 
L 1241 0 
L 628 0 
L 628 4666 
z
" transform="scale(0.015625)"/>
       <path id="DejaVuSans-29" d="M 513 4856 
L 1013 4856 
Q 1481 4119 1714 3412 
Q 1947 2706 1947 2009 
Q 1947 1309 1714 600 
Q 1481 -109 1013 -844 
L 513 -844 
Q 928 -128 1133 580 
Q 1338 1288 1338 2009 
Q 1338 2731 1133 3434 
Q 928 4138 513 4856 
z
" transform="scale(0.015625)"/>
      </defs>
      <use xlink:href="#DejaVuSans-48"/>
      <use xlink:href="#DejaVuSans-65" transform="translate(75.195312 0)"/>
      <use xlink:href="#DejaVuSans-61" transform="translate(136.71875 0)"/>
      <use xlink:href="#DejaVuSans-74" transform="translate(197.998047 0)"/>
      <use xlink:href="#DejaVuSans-20" transform="translate(237.207031 0)"/>
      <use xlink:href="#DejaVuSans-56" transform="translate(268.994141 0)"/>
      <use xlink:href="#DejaVuSans-75" transform="translate(330.652344 0)"/>
      <use xlink:href="#DejaVuSans-6c" transform="translate(394.03125 0)"/>
      <use xlink:href="#DejaVuSans-6e" transform="translate(421.814453 0)"/>
      <use xlink:href="#DejaVuSans-65" transform="translate(485.193359 0)"/>
      <use xlink:href="#DejaVuSans-72" transform="translate(546.716797 0)"/>
      <use xlink:href="#DejaVuSans-61" transform="translate(587.830078 0)"/>
      <use xlink:href="#DejaVuSans-62" transform="translate(649.109375 0)"/>
      <use xlink:href="#DejaVuSans-69" transform="translate(712.585938 0)"/>
      <use xlink:href="#DejaVuSans-6c" transform="translate(740.369141 0)"/>
      <use xlink:href="#DejaVuSans-69" transform="translate(768.152344 0)"/>
      <use xlink:href="#DejaVuSans-74" transform="translate(795.935547 0)"/>
      <use xlink:href="#DejaVuSans-79" transform="translate(835.144531 0)"/>
      <use xlink:href="#DejaVuSans-20" transform="translate(894.324219 0)"/>
      <use xlink:href="#DejaVuSans-49" transform="translate(926.111328 0)"/>
      <use xlink:href="#DejaVuSans-6e" transform="translate(955.603516 0)"/>
      <use xlink:href="#DejaVuSans-64" transform="translate(1018.982422 0)"/>
      <use xlink:href="#DejaVuSans-65" transform="translate(1082.458984 0)"/>
      <use xlink:href="#DejaVuSans-78" transform="translate(1142.232422 0)"/>
      <use xlink:href="#DejaVuSans-20" transform="translate(1201.412109 0)"/>
      <use xlink:href="#DejaVuSans-28" transform="translate(1233.199219 0)"/>
      <use xlink:href="#DejaVuSans-43" transform="translate(1272.212891 0)"/>
      <use xlink:href="#DejaVuSans-6c" transform="translate(1342.037109 0)"/>
      <use xlink:href="#DejaVuSans-75" transform="translate(1369.820312 0)"/>
      <use xlink:href="#DejaVuSans-73" transform="translate(1433.199219 0)"/>
      <use xlink:href="#DejaVuSans-74" transform="translate(1485.298828 0)"/>
      <use xlink:href="#DejaVuSans-65" transform="translate(1524.507812 0)"/>
      <use xlink:href="#DejaVuSans-72" transform="translate(1586.03125 0)"/>
      <use xlink:href="#DejaVuSans-2d" transform="translate(1620.769531 0)"/>
      <use xlink:href="#DejaVuSans-4d" transform="translate(1656.853516 0)"/>
      <use xlink:href="#DejaVuSans-65" transform="translate(1743.132812 0)"/>
      <use xlink:href="#DejaVuSans-61" transform="translate(1804.65625 0)"/>
      <use xlink:href="#DejaVuSans-6e" transform="translate(1865.935547 0)"/>
      <use xlink:href="#DejaVuSans-20" transform="translate(1929.314453 0)"/>
      <use xlink:href="#DejaVuSans-43" transform="translate(1961.101562 0)"/>
      <use xlink:href="#DejaVuSans-65" transform="translate(2030.925781 0)"/>
      <use xlink:href="#DejaVuSans-6e" transform="translate(2092.449219 0)"/>
      <use xlink:href="#DejaVuSans-74" transform="translate(2155.828125 0)"/>
      <use xlink:href="#DejaVuSans-65" transform="translate(2195.037109 0)"/>
      <use xlink:href="#DejaVuSans-72" transform="translate(2256.560547 0)"/>
      <use xlink:href="#DejaVuSans-65" transform="translate(2295.423828 0)"/>
      <use xlink:href="#DejaVuSans-64" transform="translate(2356.947266 0)"/>
      <use xlink:href="#DejaVuSans-29" transform="translate(2420.423828 0)"/>
     </g>
    </g>
   </g>
   <g id="matplotlib.axis_2">
    <g id="ytick_1">
     <g id="line2d_7">
      <defs>
       <path id="m399127ce81" d="M 0 0 
L -3.5 0 
" style="stroke: #000000; stroke-width: 0.8"/>
      </defs>
      <g>
       <use xlink:href="#m399127ce81" x="72" y="351.574467" style="stroke: #000000; stroke-width: 0.8"/>
      </g>
     </g>
     <g id="text_8">
      <!-- 5 -->
      <g transform="translate(58.6375 355.373685) scale(0.1 -0.1)">
       <defs>
        <path id="DejaVuSans-35" d="M 691 4666 
L 3169 4666 
L 3169 4134 
L 1269 4134 
L 1269 2991 
Q 1406 3038 1543 3061 
Q 1681 3084 1819 3084 
Q 2600 3084 3056 2656 
Q 3513 2228 3513 1497 
Q 3513 744 3044 326 
Q 2575 -91 1722 -91 
Q 1428 -91 1123 -41 
Q 819 9 494 109 
L 494 744 
Q 775 591 1075 516 
Q 1375 441 1709 441 
Q 2250 441 2565 725 
Q 2881 1009 2881 1497 
Q 2881 1984 2565 2268 
Q 2250 2553 1709 2553 
Q 1456 2553 1204 2497 
Q 953 2441 691 2322 
L 691 4666 
z
" transform="scale(0.015625)"/>
       </defs>
       <use xlink:href="#DejaVuSans-35"/>
      </g>
     </g>
    </g>
    <g id="ytick_2">
     <g id="line2d_8">
      <g>
       <use xlink:href="#m399127ce81" x="72" y="282.249658" style="stroke: #000000; stroke-width: 0.8"/>
      </g>
     </g>
     <g id="text_9">
      <!-- 10 -->
      <g transform="translate(52.275 286.048877) scale(0.1 -0.1)">
       <use xlink:href="#DejaVuSans-31"/>
       <use xlink:href="#DejaVuSans-30" transform="translate(63.623047 0)"/>
      </g>
     </g>
    </g>
    <g id="ytick_3">
     <g id="line2d_9">
      <g>
       <use xlink:href="#m399127ce81" x="72" y="212.92485" style="stroke: #000000; stroke-width: 0.8"/>
      </g>
     </g>
     <g id="text_10">
      <!-- 15 -->
      <g transform="translate(52.275 216.724069) scale(0.1 -0.1)">
       <use xlink:href="#DejaVuSans-31"/>
       <use xlink:href="#DejaVuSans-35" transform="translate(63.623047 0)"/>
      </g>
     </g>
    </g>
    <g id="ytick_4">
     <g id="line2d_10">
      <g>
       <use xlink:href="#m399127ce81" x="72" y="143.600042" style="stroke: #000000; stroke-width: 0.8"/>
      </g>
     </g>
     <g id="text_11">
      <!-- 20 -->
      <g transform="translate(52.275 147.399261) scale(0.1 -0.1)">
       <use xlink:href="#DejaVuSans-32"/>
       <use xlink:href="#DejaVuSans-30" transform="translate(63.623047 0)"/>
      </g>
     </g>
    </g>
    <g id="ytick_5">
     <g id="line2d_11">
      <g>
       <use xlink:href="#m399127ce81" x="72" y="74.275234" style="stroke: #000000; stroke-width: 0.8"/>
      </g>
     </g>
     <g id="text_12">
      <!-- 25 -->
      <g transform="translate(52.275 78.074453) scale(0.1 -0.1)">
       <use xlink:href="#DejaVuSans-32"/>
       <use xlink:href="#DejaVuSans-35" transform="translate(63.623047 0)"/>
      </g>
     </g>
    </g>
    <g id="text_13">
     <!-- Percentage of Residents with Poor Physical Health -->
     <g transform="translate(46.195312 343.313125) rotate(-90) scale(0.1 -0.1)">
      <defs>
       <path id="DejaVuSans-50" d="M 1259 4147 
L 1259 2394 
L 2053 2394 
Q 2494 2394 2734 2622 
Q 2975 2850 2975 3272 
Q 2975 3691 2734 3919 
Q 2494 4147 2053 4147 
L 1259 4147 
z
M 628 4666 
L 2053 4666 
Q 2838 4666 3239 4311 
Q 3641 3956 3641 3272 
Q 3641 2581 3239 2228 
Q 2838 1875 2053 1875 
L 1259 1875 
L 1259 0 
L 628 0 
L 628 4666 
z
" transform="scale(0.015625)"/>
       <path id="DejaVuSans-63" d="M 3122 3366 
L 3122 2828 
Q 2878 2963 2633 3030 
Q 2388 3097 2138 3097 
Q 1578 3097 1268 2742 
Q 959 2388 959 1747 
Q 959 1106 1268 751 
Q 1578 397 2138 397 
Q 2388 397 2633 464 
Q 2878 531 3122 666 
L 3122 134 
Q 2881 22 2623 -34 
Q 2366 -91 2075 -91 
Q 1284 -91 818 406 
Q 353 903 353 1747 
Q 353 2603 823 3093 
Q 1294 3584 2113 3584 
Q 2378 3584 2631 3529 
Q 2884 3475 3122 3366 
z
" transform="scale(0.015625)"/>
       <path id="DejaVuSans-67" d="M 2906 1791 
Q 2906 2416 2648 2759 
Q 2391 3103 1925 3103 
Q 1463 3103 1205 2759 
Q 947 2416 947 1791 
Q 947 1169 1205 825 
Q 1463 481 1925 481 
Q 2391 481 2648 825 
Q 2906 1169 2906 1791 
z
M 3481 434 
Q 3481 -459 3084 -895 
Q 2688 -1331 1869 -1331 
Q 1566 -1331 1297 -1286 
Q 1028 -1241 775 -1147 
L 775 -588 
Q 1028 -725 1275 -790 
Q 1522 -856 1778 -856 
Q 2344 -856 2625 -561 
Q 2906 -266 2906 331 
L 2906 616 
Q 2728 306 2450 153 
Q 2172 0 1784 0 
Q 1141 0 747 490 
Q 353 981 353 1791 
Q 353 2603 747 3093 
Q 1141 3584 1784 3584 
Q 2172 3584 2450 3431 
Q 2728 3278 2906 2969 
L 2906 3500 
L 3481 3500 
L 3481 434 
z
" transform="scale(0.015625)"/>
       <path id="DejaVuSans-6f" d="M 1959 3097 
Q 1497 3097 1228 2736 
Q 959 2375 959 1747 
Q 959 1119 1226 758 
Q 1494 397 1959 397 
Q 2419 397 2687 759 
Q 2956 1122 2956 1747 
Q 2956 2369 2687 2733 
Q 2419 3097 1959 3097 
z
M 1959 3584 
Q 2709 3584 3137 3096 
Q 3566 2609 3566 1747 
Q 3566 888 3137 398 
Q 2709 -91 1959 -91 
Q 1206 -91 779 398 
Q 353 888 353 1747 
Q 353 2609 779 3096 
Q 1206 3584 1959 3584 
z
" transform="scale(0.015625)"/>
       <path id="DejaVuSans-66" d="M 2375 4863 
L 2375 4384 
L 1825 4384 
Q 1516 4384 1395 4259 
Q 1275 4134 1275 3809 
L 1275 3500 
L 2222 3500 
L 2222 3053 
L 1275 3053 
L 1275 0 
L 697 0 
L 697 3053 
L 147 3053 
L 147 3500 
L 697 3500 
L 697 3744 
Q 697 4328 969 4595 
Q 1241 4863 1831 4863 
L 2375 4863 
z
" transform="scale(0.015625)"/>
       <path id="DejaVuSans-52" d="M 2841 2188 
Q 3044 2119 3236 1894 
Q 3428 1669 3622 1275 
L 4263 0 
L 3584 0 
L 2988 1197 
Q 2756 1666 2539 1819 
Q 2322 1972 1947 1972 
L 1259 1972 
L 1259 0 
L 628 0 
L 628 4666 
L 2053 4666 
Q 2853 4666 3247 4331 
Q 3641 3997 3641 3322 
Q 3641 2881 3436 2590 
Q 3231 2300 2841 2188 
z
M 1259 4147 
L 1259 2491 
L 2053 2491 
Q 2509 2491 2742 2702 
Q 2975 2913 2975 3322 
Q 2975 3731 2742 3939 
Q 2509 4147 2053 4147 
L 1259 4147 
z
" transform="scale(0.015625)"/>
       <path id="DejaVuSans-77" d="M 269 3500 
L 844 3500 
L 1563 769 
L 2278 3500 
L 2956 3500 
L 3675 769 
L 4391 3500 
L 4966 3500 
L 4050 0 
L 3372 0 
L 2619 2869 
L 1863 0 
L 1184 0 
L 269 3500 
z
" transform="scale(0.015625)"/>
       <path id="DejaVuSans-68" d="M 3513 2113 
L 3513 0 
L 2938 0 
L 2938 2094 
Q 2938 2591 2744 2837 
Q 2550 3084 2163 3084 
Q 1697 3084 1428 2787 
Q 1159 2491 1159 1978 
L 1159 0 
L 581 0 
L 581 4863 
L 1159 4863 
L 1159 2956 
Q 1366 3272 1645 3428 
Q 1925 3584 2291 3584 
Q 2894 3584 3203 3211 
Q 3513 2838 3513 2113 
z
" transform="scale(0.015625)"/>
      </defs>
      <use xlink:href="#DejaVuSans-50"/>
      <use xlink:href="#DejaVuSans-65" transform="translate(56.677734 0)"/>
      <use xlink:href="#DejaVuSans-72" transform="translate(118.201172 0)"/>
      <use xlink:href="#DejaVuSans-63" transform="translate(157.064453 0)"/>
      <use xlink:href="#DejaVuSans-65" transform="translate(212.044922 0)"/>
      <use xlink:href="#DejaVuSans-6e" transform="translate(273.568359 0)"/>
      <use xlink:href="#DejaVuSans-74" transform="translate(336.947266 0)"/>
      <use xlink:href="#DejaVuSans-61" transform="translate(376.15625 0)"/>
      <use xlink:href="#DejaVuSans-67" transform="translate(437.435547 0)"/>
      <use xlink:href="#DejaVuSans-65" transform="translate(500.912109 0)"/>
      <use xlink:href="#DejaVuSans-20" transform="translate(562.435547 0)"/>
      <use xlink:href="#DejaVuSans-6f" transform="translate(594.222656 0)"/>
      <use xlink:href="#DejaVuSans-66" transform="translate(655.404297 0)"/>
      <use xlink:href="#DejaVuSans-20" transform="translate(690.609375 0)"/>
      <use xlink:href="#DejaVuSans-52" transform="translate(722.396484 0)"/>
      <use xlink:href="#DejaVuSans-65" transform="translate(787.378906 0)"/>
      <use xlink:href="#DejaVuSans-73" transform="translate(848.902344 0)"/>
      <use xlink:href="#DejaVuSans-69" transform="translate(901.001953 0)"/>
      <use xlink:href="#DejaVuSans-64" transform="translate(928.785156 0)"/>
      <use xlink:href="#DejaVuSans-65" transform="translate(992.261719 0)"/>
      <use xlink:href="#DejaVuSans-6e" transform="translate(1053.785156 0)"/>
      <use xlink:href="#DejaVuSans-74" transform="translate(1117.164062 0)"/>
      <use xlink:href="#DejaVuSans-73" transform="translate(1156.373047 0)"/>
      <use xlink:href="#DejaVuSans-20" transform="translate(1208.472656 0)"/>
      <use xlink:href="#DejaVuSans-77" transform="translate(1240.259766 0)"/>
      <use xlink:href="#DejaVuSans-69" transform="translate(1322.046875 0)"/>
      <use xlink:href="#DejaVuSans-74" transform="translate(1349.830078 0)"/>
      <use xlink:href="#DejaVuSans-68" transform="translate(1389.039062 0)"/>
      <use xlink:href="#DejaVuSans-20" transform="translate(1452.417969 0)"/>
      <use xlink:href="#DejaVuSans-50" transform="translate(1484.205078 0)"/>
      <use xlink:href="#DejaVuSans-6f" transform="translate(1540.882812 0)"/>
      <use xlink:href="#DejaVuSans-6f" transform="translate(1602.064453 0)"/>
      <use xlink:href="#DejaVuSans-72" transform="translate(1663.246094 0)"/>
      <use xlink:href="#DejaVuSans-20" transform="translate(1704.359375 0)"/>
      <use xlink:href="#DejaVuSans-50" transform="translate(1736.146484 0)"/>
      <use xlink:href="#DejaVuSans-68" transform="translate(1796.449219 0)"/>
      <use xlink:href="#DejaVuSans-79" transform="translate(1859.828125 0)"/>
      <use xlink:href="#DejaVuSans-73" transform="translate(1919.007812 0)"/>
      <use xlink:href="#DejaVuSans-69" transform="translate(1971.107422 0)"/>
      <use xlink:href="#DejaVuSans-63" transform="translate(1998.890625 0)"/>
      <use xlink:href="#DejaVuSans-61" transform="translate(2053.871094 0)"/>
      <use xlink:href="#DejaVuSans-6c" transform="translate(2115.150391 0)"/>
      <use xlink:href="#DejaVuSans-20" transform="translate(2142.933594 0)"/>
      <use xlink:href="#DejaVuSans-48" transform="translate(2174.720703 0)"/>
      <use xlink:href="#DejaVuSans-65" transform="translate(2249.916016 0)"/>
      <use xlink:href="#DejaVuSans-61" transform="translate(2311.439453 0)"/>
      <use xlink:href="#DejaVuSans-6c" transform="translate(2372.71875 0)"/>
      <use xlink:href="#DejaVuSans-74" transform="translate(2400.501953 0)"/>
      <use xlink:href="#DejaVuSans-68" transform="translate(2439.710938 0)"/>
     </g>
    </g>
   </g>
   <g id="line2d_12">
    <path d="M 92.290909 278.527345 
L 100.572913 274.515647 
L 108.854917 270.50395 
L 117.13692 266.492252 
L 125.418924 262.480554 
L 133.700928 258.468857 
L 141.982931 254.457159 
L 150.264935 250.445461 
L 158.546939 246.433764 
L 166.828942 242.422066 
L 175.110946 238.410368 
L 183.39295 234.398671 
L 191.674954 230.386973 
L 199.956957 226.375275 
L 208.238961 222.363578 
L 216.520965 218.35188 
L 224.802968 214.340182 
L 233.084972 210.328485 
L 241.366976 206.316787 
L 249.64898 202.305089 
L 257.930983 198.293392 
L 266.212987 194.281694 
L 274.494991 190.269996 
L 282.776994 186.258299 
L 291.058998 182.246601 
L 299.341002 178.234903 
L 307.623006 174.223206 
L 315.905009 170.211508 
L 324.187013 166.19981 
L 332.469017 162.188113 
L 340.75102 158.176415 
L 349.033024 154.164717 
L 357.315028 150.15302 
L 365.597032 146.141322 
L 373.879035 142.129624 
L 382.161039 138.117927 
L 390.443043 134.106229 
L 398.725046 130.094531 
L 407.00705 126.082834 
L 415.289054 122.071136 
L 423.571058 118.059438 
L 431.853061 114.04774 
L 440.135065 110.036043 
L 448.417069 106.024345 
L 456.699072 102.012647 
L 464.981076 98.00095 
L 473.26308 93.989252 
L 481.545083 89.977554 
L 489.827087 85.965857 
L 498.109091 81.954159 
" clip-path="url(#pa802b299a6)" style="fill: none; stroke: #0000ff; stroke-width: 0.5; stroke-linecap: square"/>
   </g>
   <g id="line2d_13">
    <path d="M 92.290909 265.878787 
L 100.572913 263.915374 
L 108.854917 261.95196 
L 117.13692 259.988547 
L 125.418924 258.025133 
L 133.700928 256.061719 
L 141.982931 254.098306 
L 150.264935 252.134892 
L 158.546939 250.171479 
L 166.828942 248.208065 
L 175.110946 246.244651 
L 183.39295 244.281238 
L 191.674954 242.317824 
L 199.956957 240.35441 
L 208.238961 238.390997 
L 216.520965 236.427583 
L 224.802968 234.46417 
L 233.084972 232.500756 
L 241.366976 230.537342 
L 249.64898 228.573929 
L 257.930983 226.610515 
L 266.212987 224.647102 
L 274.494991 222.683688 
L 282.776994 220.720274 
L 291.058998 218.756861 
L 299.341002 216.793447 
L 307.623006 214.830033 
L 315.905009 212.86662 
L 324.187013 210.903206 
L 332.469017 208.939793 
L 340.75102 206.976379 
L 349.033024 205.012965 
L 357.315028 203.049552 
L 365.597032 201.086138 
L 373.879035 199.122725 
L 382.161039 197.159311 
L 390.443043 195.195897 
L 398.725046 193.232484 
L 407.00705 191.26907 
L 415.289054 189.305656 
L 423.571058 187.342243 
L 431.853061 185.378829 
L 440.135065 183.415416 
L 448.417069 181.452002 
L 456.699072 179.488588 
L 464.981076 177.525175 
L 473.26308 175.561761 
L 481.545083 173.598348 
L 489.827087 171.634934 
L 498.109091 169.67152 
" clip-path="url(#pa802b299a6)" style="fill: none; stroke: #0000ff; stroke-width: 0.5; stroke-linecap: square"/>
   </g>
   <g id="line2d_14">
    <path d="M 92.290909 222.881179 
L 100.572913 220.471416 
L 108.854917 218.061653 
L 117.13692 215.651891 
L 125.418924 213.242128 
L 133.700928 210.832366 
L 141.982931 208.422603 
L 150.264935 206.012841 
L 158.546939 203.603078 
L 166.828942 201.193316 
L 175.110946 198.783553 
L 183.39295 196.373791 
L 191.674954 193.964028 
L 199.956957 191.554266 
L 208.238961 189.144503 
L 216.520965 186.734741 
L 224.802968 184.324978 
L 233.084972 181.915216 
L 241.366976 179.505453 
L 249.64898 177.09569 
L 257.930983 174.685928 
L 266.212987 172.276165 
L 274.494991 169.866403 
L 282.776994 167.45664 
L 291.058998 165.046878 
L 299.341002 162.637115 
L 307.623006 160.227353 
L 315.905009 157.81759 
L 324.187013 155.407828 
L 332.469017 152.998065 
L 340.75102 150.588303 
L 349.033024 148.17854 
L 357.315028 145.768778 
L 365.597032 143.359015 
L 373.879035 140.949253 
L 382.161039 138.53949 
L 390.443043 136.129727 
L 398.725046 133.719965 
L 407.00705 131.310202 
L 415.289054 128.90044 
L 423.571058 126.490677 
L 431.853061 124.080915 
L 440.135065 121.671152 
L 448.417069 119.26139 
L 456.699072 116.851627 
L 464.981076 114.441865 
L 473.26308 112.032102 
L 481.545083 109.62234 
L 489.827087 107.212577 
L 498.109091 104.802815 
" clip-path="url(#pa802b299a6)" style="fill: none; stroke: #0000ff; stroke-width: 0.5; stroke-linecap: square"/>
   </g>
   <g id="line2d_15">
    <path d="M 92.290909 258.715929 
L 100.572913 255.432628 
L 108.854917 252.149327 
L 117.13692 248.866027 
L 125.418924 245.582726 
L 133.700928 242.299425 
L 141.982931 239.016124 
L 150.264935 235.732823 
L 158.546939 232.449523 
L 166.828942 229.166222 
L 175.110946 225.882921 
L 183.39295 222.59962 
L 191.674954 219.31632 
L 199.956957 216.033019 
L 208.238961 212.749718 
L 216.520965 209.466417 
L 224.802968 206.183116 
L 233.084972 202.899816 
L 241.366976 199.616515 
L 249.64898 196.333214 
L 257.930983 193.049913 
L 266.212987 189.766613 
L 274.494991 186.483312 
L 282.776994 183.200011 
L 291.058998 179.91671 
L 299.341002 176.63341 
L 307.623006 173.350109 
L 315.905009 170.066808 
L 324.187013 166.783507 
L 332.469017 163.500206 
L 340.75102 160.216906 
L 349.033024 156.933605 
L 357.315028 153.650304 
L 365.597032 150.367003 
L 373.879035 147.083703 
L 382.161039 143.800402 
L 390.443043 140.517101 
L 398.725046 137.2338 
L 407.00705 133.950499 
L 415.289054 130.667199 
L 423.571058 127.383898 
L 431.853061 124.100597 
L 440.135065 120.817296 
L 448.417069 117.533996 
L 456.699072 114.250695 
L 464.981076 110.967394 
L 473.26308 107.684093 
L 481.545083 104.400792 
L 489.827087 101.117492 
L 498.109091 97.834191 
" clip-path="url(#pa802b299a6)" style="fill: none; stroke: #0000ff; stroke-width: 0.5; stroke-linecap: square"/>
   </g>
   <g id="line2d_16">
    <path d="M 92.290909 242.852559 
L 100.572913 239.303209 
L 108.854917 235.753859 
L 117.13692 232.204509 
L 125.418924 228.655159 
L 133.700928 225.105809 
L 141.982931 221.556459 
L 150.264935 218.007109 
L 158.546939 214.457759 
L 166.828942 210.908409 
L 175.110946 207.359059 
L 183.39295 203.809709 
L 191.674954 200.260359 
L 199.956957 196.711009 
L 208.238961 193.161659 
L 216.520965 189.612309 
L 224.802968 186.062959 
L 233.084972 182.513609 
L 241.366976 178.964259 
L 249.64898 175.414909 
L 257.930983 171.865559 
L 266.212987 168.316209 
L 274.494991 164.766859 
L 282.776994 161.217509 
L 291.058998 157.668159 
L 299.341002 154.118809 
L 307.623006 150.569459 
L 315.905009 147.020109 
L 324.187013 143.470759 
L 332.469017 139.921409 
L 340.75102 136.372059 
L 349.033024 132.822709 
L 357.315028 129.273359 
L 365.597032 125.724009 
L 373.879035 122.174659 
L 382.161039 118.625309 
L 390.443043 115.075959 
L 398.725046 111.526609 
L 407.00705 107.977259 
L 415.289054 104.427909 
L 423.571058 100.878559 
L 431.853061 97.329209 
L 440.135065 93.779859 
L 448.417069 90.230509 
L 456.699072 86.681159 
L 464.981076 83.131809 
L 473.26308 79.582459 
L 481.545083 76.033109 
L 489.827087 72.483759 
L 498.109091 68.934409 
" clip-path="url(#pa802b299a6)" style="fill: none; stroke: #0000ff; stroke-width: 0.5; stroke-linecap: square"/>
   </g>
   <g id="line2d_17">
    <path d="M 92.290909 248.331471 
L 100.572913 244.630012 
L 108.854917 240.928553 
L 117.13692 237.227095 
L 125.418924 233.525636 
L 133.700928 229.824178 
L 141.982931 226.122719 
L 150.264935 222.421261 
L 158.546939 218.719802 
L 166.828942 215.018343 
L 175.110946 211.316885 
L 183.39295 207.615426 
L 191.674954 203.913968 
L 199.956957 200.212509 
L 208.238961 196.51105 
L 216.520965 192.809592 
L 224.802968 189.108133 
L 233.084972 185.406675 
L 241.366976 181.705216 
L 249.64898 178.003758 
L 257.930983 174.302299 
L 266.212987 170.60084 
L 274.494991 166.899382 
L 282.776994 163.197923 
L 291.058998 159.496465 
L 299.341002 155.795006 
L 307.623006 152.093547 
L 315.905009 148.392089 
L 324.187013 144.69063 
L 332.469017 140.989172 
L 340.75102 137.287713 
L 349.033024 133.586255 
L 357.315028 129.884796 
L 365.597032 126.183337 
L 373.879035 122.481879 
L 382.161039 118.78042 
L 390.443043 115.078962 
L 398.725046 111.377503 
L 407.00705 107.676044 
L 415.289054 103.974586 
L 423.571058 100.273127 
L 431.853061 96.571669 
L 440.135065 92.87021 
L 448.417069 89.168752 
L 456.699072 85.467293 
L 464.981076 81.765834 
L 473.26308 78.064376 
L 481.545083 74.362917 
L 489.827087 70.661459 
L 498.109091 66.96 
" clip-path="url(#pa802b299a6)" style="fill: none; stroke: #0000ff; stroke-width: 0.5; stroke-linecap: square"/>
   </g>
   <g id="line2d_18">
    <path d="M 92.290909 253.638079 
L 100.572913 249.920677 
L 108.854917 246.203275 
L 117.13692 242.485873 
L 125.418924 238.768471 
L 133.700928 235.051069 
L 141.982931 231.333667 
L 150.264935 227.616265 
L 158.546939 223.898863 
L 166.828942 220.181461 
L 175.110946 216.464059 
L 183.39295 212.746658 
L 191.674954 209.029256 
L 199.956957 205.311854 
L 208.238961 201.594452 
L 216.520965 197.87705 
L 224.802968 194.159648 
L 233.084972 190.442246 
L 241.366976 186.724844 
L 249.64898 183.007442 
L 257.930983 179.29004 
L 266.212987 175.572638 
L 274.494991 171.855236 
L 282.776994 168.137834 
L 291.058998 164.420432 
L 299.341002 160.70303 
L 307.623006 156.985628 
L 315.905009 153.268226 
L 324.187013 149.550824 
L 332.469017 145.833423 
L 340.75102 142.116021 
L 349.033024 138.398619 
L 357.315028 134.681217 
L 365.597032 130.963815 
L 373.879035 127.246413 
L 382.161039 123.529011 
L 390.443043 119.811609 
L 398.725046 116.094207 
L 407.00705 112.376805 
L 415.289054 108.659403 
L 423.571058 104.942001 
L 431.853061 101.224599 
L 440.135065 97.507197 
L 448.417069 93.789795 
L 456.699072 90.072393 
L 464.981076 86.354991 
L 473.26308 82.637589 
L 481.545083 78.920188 
L 489.827087 75.202786 
L 498.109091 71.485384 
" clip-path="url(#pa802b299a6)" style="fill: none; stroke: #0000ff; stroke-width: 0.5; stroke-linecap: square"/>
   </g>
   <g id="line2d_19">
    <path d="M 92.290909 326.677875 
L 100.572913 322.895313 
L 108.854917 319.112751 
L 117.13692 315.330189 
L 125.418924 311.547626 
L 133.700928 307.765064 
L 141.982931 303.982502 
L 150.264935 300.19994 
L 158.546939 296.417378 
L 166.828942 292.634815 
L 175.110946 288.852253 
L 183.39295 285.069691 
L 191.674954 281.287129 
L 199.956957 277.504566 
L 208.238961 273.722004 
L 216.520965 269.939442 
L 224.802968 266.15688 
L 233.084972 262.374318 
L 241.366976 258.591755 
L 249.64898 254.809193 
L 257.930983 251.026631 
L 266.212987 247.244069 
L 274.494991 243.461507 
L 282.776994 239.678944 
L 291.058998 235.896382 
L 299.341002 232.11382 
L 307.623006 228.331258 
L 315.905009 224.548696 
L 324.187013 220.766133 
L 332.469017 216.983571 
L 340.75102 213.201009 
L 349.033024 209.418447 
L 357.315028 205.635884 
L 365.597032 201.853322 
L 373.879035 198.07076 
L 382.161039 194.288198 
L 390.443043 190.505636 
L 398.725046 186.723073 
L 407.00705 182.940511 
L 415.289054 179.157949 
L 423.571058 175.375387 
L 431.853061 171.592825 
L 440.135065 167.810262 
L 448.417069 164.0277 
L 456.699072 160.245138 
L 464.981076 156.462576 
L 473.26308 152.680014 
L 481.545083 148.897451 
L 489.827087 145.114889 
L 498.109091 141.332327 
" clip-path="url(#pa802b299a6)" style="fill: none; stroke: #0000ff; stroke-width: 0.5; stroke-linecap: square"/>
   </g>
   <g id="line2d_20">
    <path d="M 92.290909 310.829065 
L 100.572913 306.974118 
L 108.854917 303.119172 
L 117.13692 299.264225 
L 125.418924 295.409278 
L 133.700928 291.554331 
L 141.982931 287.699384 
L 150.264935 283.844438 
L 158.546939 279.989491 
L 166.828942 276.134544 
L 175.110946 272.279597 
L 183.39295 268.42465 
L 191.674954 264.569704 
L 199.956957 260.714757 
L 208.238961 256.85981 
L 216.520965 253.004863 
L 224.802968 249.149916 
L 233.084972 245.29497 
L 241.366976 241.440023 
L 249.64898 237.585076 
L 257.930983 233.730129 
L 266.212987 229.875183 
L 274.494991 226.020236 
L 282.776994 222.165289 
L 291.058998 218.310342 
L 299.341002 214.455395 
L 307.623006 210.600449 
L 315.905009 206.745502 
L 324.187013 202.890555 
L 332.469017 199.035608 
L 340.75102 195.180661 
L 349.033024 191.325715 
L 357.315028 187.470768 
L 365.597032 183.615821 
L 373.879035 179.760874 
L 382.161039 175.905927 
L 390.443043 172.050981 
L 398.725046 168.196034 
L 407.00705 164.341087 
L 415.289054 160.48614 
L 423.571058 156.631193 
L 431.853061 152.776247 
L 440.135065 148.9213 
L 448.417069 145.066353 
L 456.699072 141.211406 
L 464.981076 137.35646 
L 473.26308 133.501513 
L 481.545083 129.646566 
L 489.827087 125.791619 
L 498.109091 121.936672 
" clip-path="url(#pa802b299a6)" style="fill: none; stroke: #0000ff; stroke-width: 0.5; stroke-linecap: square"/>
   </g>
   <g id="line2d_21">
    <path d="M 92.290909 343.477607 
L 100.572913 338.916808 
L 108.854917 334.356009 
L 117.13692 329.795211 
L 125.418924 325.234412 
L 133.700928 320.673613 
L 141.982931 316.112814 
L 150.264935 311.552016 
L 158.546939 306.991217 
L 166.828942 302.430418 
L 175.110946 297.86962 
L 183.39295 293.308821 
L 191.674954 288.748022 
L 199.956957 284.187224 
L 208.238961 279.626425 
L 216.520965 275.065626 
L 224.802968 270.504828 
L 233.084972 265.944029 
L 241.366976 261.38323 
L 249.64898 256.822431 
L 257.930983 252.261633 
L 266.212987 247.700834 
L 274.494991 243.140035 
L 282.776994 238.579237 
L 291.058998 234.018438 
L 299.341002 229.457639 
L 307.623006 224.896841 
L 315.905009 220.336042 
L 324.187013 215.775243 
L 332.469017 211.214445 
L 340.75102 206.653646 
L 349.033024 202.092847 
L 357.315028 197.532048 
L 365.597032 192.97125 
L 373.879035 188.410451 
L 382.161039 183.849652 
L 390.443043 179.288854 
L 398.725046 174.728055 
L 407.00705 170.167256 
L 415.289054 165.606458 
L 423.571058 161.045659 
L 431.853061 156.48486 
L 440.135065 151.924062 
L 448.417069 147.363263 
L 456.699072 142.802464 
L 464.981076 138.241665 
L 473.26308 133.680867 
L 481.545083 129.120068 
L 489.827087 124.559269 
L 498.109091 119.998471 
" clip-path="url(#pa802b299a6)" style="fill: none; stroke: #0000ff; stroke-width: 0.5; stroke-linecap: square"/>
   </g>
   <g id="line2d_22">
    <path d="M 92.290909 280.230603 
L 100.572913 277.869022 
L 108.854917 275.50744 
L 117.13692 273.145859 
L 125.418924 270.784277 
L 133.700928 268.422696 
L 141.982931 266.061114 
L 150.264935 263.699532 
L 158.546939 261.337951 
L 166.828942 258.976369 
L 175.110946 256.614788 
L 183.39295 254.253206 
L 191.674954 251.891625 
L 199.956957 249.530043 
L 208.238961 247.168462 
L 216.520965 244.80688 
L 224.802968 242.445298 
L 233.084972 240.083717 
L 241.366976 237.722135 
L 249.64898 235.360554 
L 257.930983 232.998972 
L 266.212987 230.637391 
L 274.494991 228.275809 
L 282.776994 225.914227 
L 291.058998 223.552646 
L 299.341002 221.191064 
L 307.623006 218.829483 
L 315.905009 216.467901 
L 324.187013 214.10632 
L 332.469017 211.744738 
L 340.75102 209.383157 
L 349.033024 207.021575 
L 357.315028 204.659993 
L 365.597032 202.298412 
L 373.879035 199.93683 
L 382.161039 197.575249 
L 390.443043 195.213667 
L 398.725046 192.852086 
L 407.00705 190.490504 
L 415.289054 188.128923 
L 423.571058 185.767341 
L 431.853061 183.405759 
L 440.135065 181.044178 
L 448.417069 178.682596 
L 456.699072 176.321015 
L 464.981076 173.959433 
L 473.26308 171.597852 
L 481.545083 169.23627 
L 489.827087 166.874689 
L 498.109091 164.513107 
" clip-path="url(#pa802b299a6)" style="fill: none; stroke: #0000ff; stroke-width: 0.5; stroke-linecap: square"/>
   </g>
   <g id="line2d_23">
    <path d="M 92.290909 252.33518 
L 100.572913 250.514824 
L 108.854917 248.694469 
L 117.13692 246.874113 
L 125.418924 245.053758 
L 133.700928 243.233402 
L 141.982931 241.413046 
L 150.264935 239.592691 
L 158.546939 237.772335 
L 166.828942 235.95198 
L 175.110946 234.131624 
L 183.39295 232.311269 
L 191.674954 230.490913 
L 199.956957 228.670557 
L 208.238961 226.850202 
L 216.520965 225.029846 
L 224.802968 223.209491 
L 233.084972 221.389135 
L 241.366976 219.568779 
L 249.64898 217.748424 
L 257.930983 215.928068 
L 266.212987 214.107713 
L 274.494991 212.287357 
L 282.776994 210.467001 
L 291.058998 208.646646 
L 299.341002 206.82629 
L 307.623006 205.005935 
L 315.905009 203.185579 
L 324.187013 201.365224 
L 332.469017 199.544868 
L 340.75102 197.724512 
L 349.033024 195.904157 
L 357.315028 194.083801 
L 365.597032 192.263446 
L 373.879035 190.44309 
L 382.161039 188.622734 
L 390.443043 186.802379 
L 398.725046 184.982023 
L 407.00705 183.161668 
L 415.289054 181.341312 
L 423.571058 179.520957 
L 431.853061 177.700601 
L 440.135065 175.880245 
L 448.417069 174.05989 
L 456.699072 172.239534 
L 464.981076 170.419179 
L 473.26308 168.598823 
L 481.545083 166.778467 
L 489.827087 164.958112 
L 498.109091 163.137756 
" clip-path="url(#pa802b299a6)" style="fill: none; stroke: #0000ff; stroke-width: 0.5; stroke-linecap: square"/>
   </g>
   <g id="line2d_24">
    <path d="M 92.290909 278.848858 
L 100.572913 276.061805 
L 108.854917 273.274753 
L 117.13692 270.4877 
L 125.418924 267.700647 
L 133.700928 264.913595 
L 141.982931 262.126542 
L 150.264935 259.339489 
L 158.546939 256.552437 
L 166.828942 253.765384 
L 175.110946 250.978332 
L 183.39295 248.191279 
L 191.674954 245.404226 
L 199.956957 242.617174 
L 208.238961 239.830121 
L 216.520965 237.043068 
L 224.802968 234.256016 
L 233.084972 231.468963 
L 241.366976 228.681911 
L 249.64898 225.894858 
L 257.930983 223.107805 
L 266.212987 220.320753 
L 274.494991 217.5337 
L 282.776994 214.746647 
L 291.058998 211.959595 
L 299.341002 209.172542 
L 307.623006 206.38549 
L 315.905009 203.598437 
L 324.187013 200.811384 
L 332.469017 198.024332 
L 340.75102 195.237279 
L 349.033024 192.450226 
L 357.315028 189.663174 
L 365.597032 186.876121 
L 373.879035 184.089068 
L 382.161039 181.302016 
L 390.443043 178.514963 
L 398.725046 175.727911 
L 407.00705 172.940858 
L 415.289054 170.153805 
L 423.571058 167.366753 
L 431.853061 164.5797 
L 440.135065 161.792647 
L 448.417069 159.005595 
L 456.699072 156.218542 
L 464.981076 153.43149 
L 473.26308 150.644437 
L 481.545083 147.857384 
L 489.827087 145.070332 
L 498.109091 142.283279 
" clip-path="url(#pa802b299a6)" style="fill: none; stroke: #0000ff; stroke-width: 0.5; stroke-linecap: square"/>
   </g>
   <g id="line2d_25">
    <path d="M 92.290909 287.148938 
L 100.572913 285.684321 
L 108.854917 284.219704 
L 117.13692 282.755088 
L 125.418924 281.290471 
L 133.700928 279.825854 
L 141.982931 278.361237 
L 150.264935 276.89662 
L 158.546939 275.432003 
L 166.828942 273.967386 
L 175.110946 272.50277 
L 183.39295 271.038153 
L 191.674954 269.573536 
L 199.956957 268.108919 
L 208.238961 266.644302 
L 216.520965 265.179685 
L 224.802968 263.715069 
L 233.084972 262.250452 
L 241.366976 260.785835 
L 249.64898 259.321218 
L 257.930983 257.856601 
L 266.212987 256.391984 
L 274.494991 254.927368 
L 282.776994 253.462751 
L 291.058998 251.998134 
L 299.341002 250.533517 
L 307.623006 249.0689 
L 315.905009 247.604283 
L 324.187013 246.139666 
L 332.469017 244.67505 
L 340.75102 243.210433 
L 349.033024 241.745816 
L 357.315028 240.281199 
L 365.597032 238.816582 
L 373.879035 237.351965 
L 382.161039 235.887349 
L 390.443043 234.422732 
L 398.725046 232.958115 
L 407.00705 231.493498 
L 415.289054 230.028881 
L 423.571058 228.564264 
L 431.853061 227.099648 
L 440.135065 225.635031 
L 448.417069 224.170414 
L 456.699072 222.705797 
L 464.981076 221.24118 
L 473.26308 219.776563 
L 481.545083 218.311946 
L 489.827087 216.84733 
L 498.109091 215.382713 
" clip-path="url(#pa802b299a6)" style="fill: none; stroke: #0000ff; stroke-width: 0.5; stroke-linecap: square"/>
   </g>
   <g id="line2d_26">
    <path d="M 92.290909 259.54486 
L 100.572913 258.322097 
L 108.854917 257.099335 
L 117.13692 255.876572 
L 125.418924 254.65381 
L 133.700928 253.431047 
L 141.982931 252.208284 
L 150.264935 250.985522 
L 158.546939 249.762759 
L 166.828942 248.539997 
L 175.110946 247.317234 
L 183.39295 246.094471 
L 191.674954 244.871709 
L 199.956957 243.648946 
L 208.238961 242.426184 
L 216.520965 241.203421 
L 224.802968 239.980659 
L 233.084972 238.757896 
L 241.366976 237.535133 
L 249.64898 236.312371 
L 257.930983 235.089608 
L 266.212987 233.866846 
L 274.494991 232.644083 
L 282.776994 231.421321 
L 291.058998 230.198558 
L 299.341002 228.975795 
L 307.623006 227.753033 
L 315.905009 226.53027 
L 324.187013 225.307508 
L 332.469017 224.084745 
L 340.75102 222.861983 
L 349.033024 221.63922 
L 357.315028 220.416457 
L 365.597032 219.193695 
L 373.879035 217.970932 
L 382.161039 216.74817 
L 390.443043 215.525407 
L 398.725046 214.302645 
L 407.00705 213.079882 
L 415.289054 211.857119 
L 423.571058 210.634357 
L 431.853061 209.411594 
L 440.135065 208.188832 
L 448.417069 206.966069 
L 456.699072 205.743306 
L 464.981076 204.520544 
L 473.26308 203.297781 
L 481.545083 202.075019 
L 489.827087 200.852256 
L 498.109091 199.629494 
" clip-path="url(#pa802b299a6)" style="fill: none; stroke: #0000ff; stroke-width: 0.5; stroke-linecap: square"/>
   </g>
   <g id="line2d_27">
    <path d="M 92.290909 280.326171 
L 100.572913 278.045635 
L 108.854917 275.765098 
L 117.13692 273.484562 
L 125.418924 271.204025 
L 133.700928 268.923489 
L 141.982931 266.642952 
L 150.264935 264.362416 
L 158.546939 262.081879 
L 166.828942 259.801343 
L 175.110946 257.520806 
L 183.39295 255.24027 
L 191.674954 252.959733 
L 199.956957 250.679197 
L 208.238961 248.39866 
L 216.520965 246.118124 
L 224.802968 243.837587 
L 233.084972 241.557051 
L 241.366976 239.276514 
L 249.64898 236.995978 
L 257.930983 234.715441 
L 266.212987 232.434905 
L 274.494991 230.154368 
L 282.776994 227.873832 
L 291.058998 225.593295 
L 299.341002 223.312759 
L 307.623006 221.032222 
L 315.905009 218.751686 
L 324.187013 216.471149 
L 332.469017 214.190613 
L 340.75102 211.910076 
L 349.033024 209.62954 
L 357.315028 207.349003 
L 365.597032 205.068467 
L 373.879035 202.78793 
L 382.161039 200.507394 
L 390.443043 198.226857 
L 398.725046 195.946321 
L 407.00705 193.665784 
L 415.289054 191.385248 
L 423.571058 189.104711 
L 431.853061 186.824175 
L 440.135065 184.543638 
L 448.417069 182.263102 
L 456.699072 179.982566 
L 464.981076 177.702029 
L 473.26308 175.421493 
L 481.545083 173.140956 
L 489.827087 170.86042 
L 498.109091 168.579883 
" clip-path="url(#pa802b299a6)" style="fill: none; stroke: #0000ff; stroke-width: 0.5; stroke-linecap: square"/>
   </g>
   <g id="line2d_28">
    <path d="M 92.290909 294.479679 
L 100.572913 291.423635 
L 108.854917 288.367592 
L 117.13692 285.311549 
L 125.418924 282.255505 
L 133.700928 279.199462 
L 141.982931 276.143419 
L 150.264935 273.087375 
L 158.546939 270.031332 
L 166.828942 266.975289 
L 175.110946 263.919246 
L 183.39295 260.863202 
L 191.674954 257.807159 
L 199.956957 254.751116 
L 208.238961 251.695072 
L 216.520965 248.639029 
L 224.802968 245.582986 
L 233.084972 242.526942 
L 241.366976 239.470899 
L 249.64898 236.414856 
L 257.930983 233.358813 
L 266.212987 230.302769 
L 274.494991 227.246726 
L 282.776994 224.190683 
L 291.058998 221.134639 
L 299.341002 218.078596 
L 307.623006 215.022553 
L 315.905009 211.966509 
L 324.187013 208.910466 
L 332.469017 205.854423 
L 340.75102 202.79838 
L 349.033024 199.742336 
L 357.315028 196.686293 
L 365.597032 193.63025 
L 373.879035 190.574206 
L 382.161039 187.518163 
L 390.443043 184.46212 
L 398.725046 181.406077 
L 407.00705 178.350033 
L 415.289054 175.29399 
L 423.571058 172.237947 
L 431.853061 169.181903 
L 440.135065 166.12586 
L 448.417069 163.069817 
L 456.699072 160.013773 
L 464.981076 156.95773 
L 473.26308 153.901687 
L 481.545083 150.845644 
L 489.827087 147.7896 
L 498.109091 144.733557 
" clip-path="url(#pa802b299a6)" style="fill: none; stroke: #0000ff; stroke-width: 0.5; stroke-linecap: square"/>
   </g>
   <g id="line2d_29">
    <path d="M 92.290909 272.054071 
L 100.572913 270.513925 
L 108.854917 268.973778 
L 117.13692 267.433632 
L 125.418924 265.893486 
L 133.700928 264.353339 
L 141.982931 262.813193 
L 150.264935 261.273047 
L 158.546939 259.7329 
L 166.828942 258.192754 
L 175.110946 256.652608 
L 183.39295 255.112461 
L 191.674954 253.572315 
L 199.956957 252.032169 
L 208.238961 250.492022 
L 216.520965 248.951876 
L 224.802968 247.41173 
L 233.084972 245.871584 
L 241.366976 244.331437 
L 249.64898 242.791291 
L 257.930983 241.251145 
L 266.212987 239.710998 
L 274.494991 238.170852 
L 282.776994 236.630706 
L 291.058998 235.090559 
L 299.341002 233.550413 
L 307.623006 232.010267 
L 315.905009 230.47012 
L 324.187013 228.929974 
L 332.469017 227.389828 
L 340.75102 225.849681 
L 349.033024 224.309535 
L 357.315028 222.769389 
L 365.597032 221.229242 
L 373.879035 219.689096 
L 382.161039 218.14895 
L 390.443043 216.608803 
L 398.725046 215.068657 
L 407.00705 213.528511 
L 415.289054 211.988364 
L 423.571058 210.448218 
L 431.853061 208.908072 
L 440.135065 207.367925 
L 448.417069 205.827779 
L 456.699072 204.287633 
L 464.981076 202.747487 
L 473.26308 201.20734 
L 481.545083 199.667194 
L 489.827087 198.127048 
L 498.109091 196.586901 
" clip-path="url(#pa802b299a6)" style="fill: none; stroke: #0000ff; stroke-width: 0.5; stroke-linecap: square"/>
   </g>
   <g id="line2d_30">
    <path d="M 92.290909 266.498958 
L 100.572913 264.682877 
L 108.854917 262.866796 
L 117.13692 261.050715 
L 125.418924 259.234634 
L 133.700928 257.418553 
L 141.982931 255.602472 
L 150.264935 253.786391 
L 158.546939 251.97031 
L 166.828942 250.154229 
L 175.110946 248.338148 
L 183.39295 246.522067 
L 191.674954 244.705986 
L 199.956957 242.889905 
L 208.238961 241.073824 
L 216.520965 239.257743 
L 224.802968 237.441662 
L 233.084972 235.625581 
L 241.366976 233.8095 
L 249.64898 231.993419 
L 257.930983 230.177338 
L 266.212987 228.361257 
L 274.494991 226.545176 
L 282.776994 224.729095 
L 291.058998 222.913014 
L 299.341002 221.096933 
L 307.623006 219.280852 
L 315.905009 217.464771 
L 324.187013 215.64869 
L 332.469017 213.832609 
L 340.75102 212.016528 
L 349.033024 210.200447 
L 357.315028 208.384366 
L 365.597032 206.568285 
L 373.879035 204.752204 
L 382.161039 202.936123 
L 390.443043 201.120042 
L 398.725046 199.303961 
L 407.00705 197.48788 
L 415.289054 195.671799 
L 423.571058 193.855718 
L 431.853061 192.039637 
L 440.135065 190.223556 
L 448.417069 188.407475 
L 456.699072 186.591394 
L 464.981076 184.775313 
L 473.26308 182.959232 
L 481.545083 181.143151 
L 489.827087 179.32707 
L 498.109091 177.510989 
" clip-path="url(#pa802b299a6)" style="fill: none; stroke: #0000ff; stroke-width: 0.5; stroke-linecap: square"/>
   </g>
   <g id="line2d_31">
    <path d="M 92.290909 306.823555 
L 100.572913 304.716659 
L 108.854917 302.609763 
L 117.13692 300.502866 
L 125.418924 298.39597 
L 133.700928 296.289074 
L 141.982931 294.182177 
L 150.264935 292.075281 
L 158.546939 289.968385 
L 166.828942 287.861488 
L 175.110946 285.754592 
L 183.39295 283.647696 
L 191.674954 281.540799 
L 199.956957 279.433903 
L 208.238961 277.327007 
L 216.520965 275.22011 
L 224.802968 273.113214 
L 233.084972 271.006318 
L 241.366976 268.899421 
L 249.64898 266.792525 
L 257.930983 264.685629 
L 266.212987 262.578732 
L 274.494991 260.471836 
L 282.776994 258.36494 
L 291.058998 256.258043 
L 299.341002 254.151147 
L 307.623006 252.044251 
L 315.905009 249.937354 
L 324.187013 247.830458 
L 332.469017 245.723562 
L 340.75102 243.616665 
L 349.033024 241.509769 
L 357.315028 239.402873 
L 365.597032 237.295976 
L 373.879035 235.18908 
L 382.161039 233.082184 
L 390.443043 230.975287 
L 398.725046 228.868391 
L 407.00705 226.761495 
L 415.289054 224.654598 
L 423.571058 222.547702 
L 431.853061 220.440806 
L 440.135065 218.333909 
L 448.417069 216.227013 
L 456.699072 214.120117 
L 464.981076 212.01322 
L 473.26308 209.906324 
L 481.545083 207.799428 
L 489.827087 205.692531 
L 498.109091 203.585635 
" clip-path="url(#pa802b299a6)" style="fill: none; stroke: #0000ff; stroke-width: 0.5; stroke-linecap: square"/>
   </g>
   <g id="line2d_32">
    <path d="M 92.290909 328.948012 
L 100.572913 325.86255 
L 108.854917 322.777089 
L 117.13692 319.691627 
L 125.418924 316.606165 
L 133.700928 313.520704 
L 141.982931 310.435242 
L 150.264935 307.34978 
L 158.546939 304.264318 
L 166.828942 301.178857 
L 175.110946 298.093395 
L 183.39295 295.007933 
L 191.674954 291.922471 
L 199.956957 288.83701 
L 208.238961 285.751548 
L 216.520965 282.666086 
L 224.802968 279.580624 
L 233.084972 276.495163 
L 241.366976 273.409701 
L 249.64898 270.324239 
L 257.930983 267.238778 
L 266.212987 264.153316 
L 274.494991 261.067854 
L 282.776994 257.982392 
L 291.058998 254.896931 
L 299.341002 251.811469 
L 307.623006 248.726007 
L 315.905009 245.640545 
L 324.187013 242.555084 
L 332.469017 239.469622 
L 340.75102 236.38416 
L 349.033024 233.298699 
L 357.315028 230.213237 
L 365.597032 227.127775 
L 373.879035 224.042313 
L 382.161039 220.956852 
L 390.443043 217.87139 
L 398.725046 214.785928 
L 407.00705 211.700466 
L 415.289054 208.615005 
L 423.571058 205.529543 
L 431.853061 202.444081 
L 440.135065 199.358619 
L 448.417069 196.273158 
L 456.699072 193.187696 
L 464.981076 190.102234 
L 473.26308 187.016773 
L 481.545083 183.931311 
L 489.827087 180.845849 
L 498.109091 177.760387 
" clip-path="url(#pa802b299a6)" style="fill: none; stroke: #0000ff; stroke-width: 0.5; stroke-linecap: square"/>
   </g>
   <g id="line2d_33">
    <path d="M 92.290909 327.26412 
L 100.572913 324.150646 
L 108.854917 321.037172 
L 117.13692 317.923699 
L 125.418924 314.810225 
L 133.700928 311.696752 
L 141.982931 308.583278 
L 150.264935 305.469805 
L 158.546939 302.356331 
L 166.828942 299.242857 
L 175.110946 296.129384 
L 183.39295 293.01591 
L 191.674954 289.902437 
L 199.956957 286.788963 
L 208.238961 283.67549 
L 216.520965 280.562016 
L 224.802968 277.448542 
L 233.084972 274.335069 
L 241.366976 271.221595 
L 249.64898 268.108122 
L 257.930983 264.994648 
L 266.212987 261.881174 
L 274.494991 258.767701 
L 282.776994 255.654227 
L 291.058998 252.540754 
L 299.341002 249.42728 
L 307.623006 246.313807 
L 315.905009 243.200333 
L 324.187013 240.086859 
L 332.469017 236.973386 
L 340.75102 233.859912 
L 349.033024 230.746439 
L 357.315028 227.632965 
L 365.597032 224.519491 
L 373.879035 221.406018 
L 382.161039 218.292544 
L 390.443043 215.179071 
L 398.725046 212.065597 
L 407.00705 208.952124 
L 415.289054 205.83865 
L 423.571058 202.725176 
L 431.853061 199.611703 
L 440.135065 196.498229 
L 448.417069 193.384756 
L 456.699072 190.271282 
L 464.981076 187.157809 
L 473.26308 184.044335 
L 481.545083 180.930861 
L 489.827087 177.817388 
L 498.109091 174.703914 
" clip-path="url(#pa802b299a6)" style="fill: none; stroke: #0000ff; stroke-width: 0.5; stroke-linecap: square"/>
   </g>
   <g id="line2d_34">
    <path d="M 92.290909 336.257068 
L 100.572913 333.656381 
L 108.854917 331.055693 
L 117.13692 328.455006 
L 125.418924 325.854319 
L 133.700928 323.253631 
L 141.982931 320.652944 
L 150.264935 318.052256 
L 158.546939 315.451569 
L 166.828942 312.850882 
L 175.110946 310.250194 
L 183.39295 307.649507 
L 191.674954 305.048819 
L 199.956957 302.448132 
L 208.238961 299.847445 
L 216.520965 297.246757 
L 224.802968 294.64607 
L 233.084972 292.045383 
L 241.366976 289.444695 
L 249.64898 286.844008 
L 257.930983 284.24332 
L 266.212987 281.642633 
L 274.494991 279.041946 
L 282.776994 276.441258 
L 291.058998 273.840571 
L 299.341002 271.239883 
L 307.623006 268.639196 
L 315.905009 266.038509 
L 324.187013 263.437821 
L 332.469017 260.837134 
L 340.75102 258.236446 
L 349.033024 255.635759 
L 357.315028 253.035072 
L 365.597032 250.434384 
L 373.879035 247.833697 
L 382.161039 245.233009 
L 390.443043 242.632322 
L 398.725046 240.031635 
L 407.00705 237.430947 
L 415.289054 234.83026 
L 423.571058 232.229572 
L 431.853061 229.628885 
L 440.135065 227.028198 
L 448.417069 224.42751 
L 456.699072 221.826823 
L 464.981076 219.226135 
L 473.26308 216.625448 
L 481.545083 214.024761 
L 489.827087 211.424073 
L 498.109091 208.823386 
" clip-path="url(#pa802b299a6)" style="fill: none; stroke: #0000ff; stroke-width: 0.5; stroke-linecap: square"/>
   </g>
   <g id="line2d_35">
    <path d="M 92.290909 337.803843 
L 100.572913 334.778486 
L 108.854917 331.75313 
L 117.13692 328.727773 
L 125.418924 325.702417 
L 133.700928 322.67706 
L 141.982931 319.651704 
L 150.264935 316.626348 
L 158.546939 313.600991 
L 166.828942 310.575635 
L 175.110946 307.550278 
L 183.39295 304.524922 
L 191.674954 301.499565 
L 199.956957 298.474209 
L 208.238961 295.448853 
L 216.520965 292.423496 
L 224.802968 289.39814 
L 233.084972 286.372783 
L 241.366976 283.347427 
L 249.64898 280.322071 
L 257.930983 277.296714 
L 266.212987 274.271358 
L 274.494991 271.246001 
L 282.776994 268.220645 
L 291.058998 265.195288 
L 299.341002 262.169932 
L 307.623006 259.144576 
L 315.905009 256.119219 
L 324.187013 253.093863 
L 332.469017 250.068506 
L 340.75102 247.04315 
L 349.033024 244.017793 
L 357.315028 240.992437 
L 365.597032 237.967081 
L 373.879035 234.941724 
L 382.161039 231.916368 
L 390.443043 228.891011 
L 398.725046 225.865655 
L 407.00705 222.840298 
L 415.289054 219.814942 
L 423.571058 216.789586 
L 431.853061 213.764229 
L 440.135065 210.738873 
L 448.417069 207.713516 
L 456.699072 204.68816 
L 464.981076 201.662803 
L 473.26308 198.637447 
L 481.545083 195.612091 
L 489.827087 192.586734 
L 498.109091 189.561378 
" clip-path="url(#pa802b299a6)" style="fill: none; stroke: #0000ff; stroke-width: 0.5; stroke-linecap: square"/>
   </g>
   <g id="line2d_36">
    <path d="M 92.290909 349.579046 
L 100.572913 346.03191 
L 108.854917 342.484773 
L 117.13692 338.937637 
L 125.418924 335.390501 
L 133.700928 331.843364 
L 141.982931 328.296228 
L 150.264935 324.749092 
L 158.546939 321.201956 
L 166.828942 317.654819 
L 175.110946 314.107683 
L 183.39295 310.560547 
L 191.674954 307.01341 
L 199.956957 303.466274 
L 208.238961 299.919138 
L 216.520965 296.372002 
L 224.802968 292.824865 
L 233.084972 289.277729 
L 241.366976 285.730593 
L 249.64898 282.183456 
L 257.930983 278.63632 
L 266.212987 275.089184 
L 274.494991 271.542047 
L 282.776994 267.994911 
L 291.058998 264.447775 
L 299.341002 260.900639 
L 307.623006 257.353502 
L 315.905009 253.806366 
L 324.187013 250.25923 
L 332.469017 246.712093 
L 340.75102 243.164957 
L 349.033024 239.617821 
L 357.315028 236.070685 
L 365.597032 232.523548 
L 373.879035 228.976412 
L 382.161039 225.429276 
L 390.443043 221.882139 
L 398.725046 218.335003 
L 407.00705 214.787867 
L 415.289054 211.240731 
L 423.571058 207.693594 
L 431.853061 204.146458 
L 440.135065 200.599322 
L 448.417069 197.052185 
L 456.699072 193.505049 
L 464.981076 189.957913 
L 473.26308 186.410777 
L 481.545083 182.86364 
L 489.827087 179.316504 
L 498.109091 175.769368 
" clip-path="url(#pa802b299a6)" style="fill: none; stroke: #0000ff; stroke-width: 0.5; stroke-linecap: square"/>
   </g>
   <g id="line2d_37">
    <path d="M 92.290909 348.2284 
L 100.572913 344.831311 
L 108.854917 341.434223 
L 117.13692 338.037134 
L 125.418924 334.640045 
L 133.700928 331.242956 
L 141.982931 327.845868 
L 150.264935 324.448779 
L 158.546939 321.05169 
L 166.828942 317.654602 
L 175.110946 314.257513 
L 183.39295 310.860424 
L 191.674954 307.463335 
L 199.956957 304.066247 
L 208.238961 300.669158 
L 216.520965 297.272069 
L 224.802968 293.87498 
L 233.084972 290.477892 
L 241.366976 287.080803 
L 249.64898 283.683714 
L 257.930983 280.286626 
L 266.212987 276.889537 
L 274.494991 273.492448 
L 282.776994 270.095359 
L 291.058998 266.698271 
L 299.341002 263.301182 
L 307.623006 259.904093 
L 315.905009 256.507004 
L 324.187013 253.109916 
L 332.469017 249.712827 
L 340.75102 246.315738 
L 349.033024 242.91865 
L 357.315028 239.521561 
L 365.597032 236.124472 
L 373.879035 232.727383 
L 382.161039 229.330295 
L 390.443043 225.933206 
L 398.725046 222.536117 
L 407.00705 219.139028 
L 415.289054 215.74194 
L 423.571058 212.344851 
L 431.853061 208.947762 
L 440.135065 205.550674 
L 448.417069 202.153585 
L 456.699072 198.756496 
L 464.981076 195.359407 
L 473.26308 191.962319 
L 481.545083 188.56523 
L 489.827087 185.168141 
L 498.109091 181.771052 
" clip-path="url(#pa802b299a6)" style="fill: none; stroke: #0000ff; stroke-width: 0.5; stroke-linecap: square"/>
   </g>
   <g id="line2d_38">
    <path d="M 92.290909 344.383897 
L 100.572913 339.826611 
L 108.854917 335.269325 
L 117.13692 330.712038 
L 125.418924 326.154752 
L 133.700928 321.597466 
L 141.982931 317.040179 
L 150.264935 312.482893 
L 158.546939 307.925607 
L 166.828942 303.36832 
L 175.110946 298.811034 
L 183.39295 294.253748 
L 191.674954 289.696461 
L 199.956957 285.139175 
L 208.238961 280.581888 
L 216.520965 276.024602 
L 224.802968 271.467316 
L 233.084972 266.910029 
L 241.366976 262.352743 
L 249.64898 257.795457 
L 257.930983 253.23817 
L 266.212987 248.680884 
L 274.494991 244.123598 
L 282.776994 239.566311 
L 291.058998 235.009025 
L 299.341002 230.451739 
L 307.623006 225.894452 
L 315.905009 221.337166 
L 324.187013 216.77988 
L 332.469017 212.222593 
L 340.75102 207.665307 
L 349.033024 203.108021 
L 357.315028 198.550734 
L 365.597032 193.993448 
L 373.879035 189.436162 
L 382.161039 184.878875 
L 390.443043 180.321589 
L 398.725046 175.764302 
L 407.00705 171.207016 
L 415.289054 166.64973 
L 423.571058 162.092443 
L 431.853061 157.535157 
L 440.135065 152.977871 
L 448.417069 148.420584 
L 456.699072 143.863298 
L 464.981076 139.306012 
L 473.26308 134.748725 
L 481.545083 130.191439 
L 489.827087 125.634153 
L 498.109091 121.076866 
" clip-path="url(#pa802b299a6)" style="fill: none; stroke: #0000ff; stroke-width: 0.5; stroke-linecap: square"/>
   </g>
   <g id="line2d_39">
    <path d="M 92.290909 369.36 
L 100.572913 364.98896 
L 108.854917 360.617921 
L 117.13692 356.246881 
L 125.418924 351.875841 
L 133.700928 347.504801 
L 141.982931 343.133762 
L 150.264935 338.762722 
L 158.546939 334.391682 
L 166.828942 330.020642 
L 175.110946 325.649603 
L 183.39295 321.278563 
L 191.674954 316.907523 
L 199.956957 312.536484 
L 208.238961 308.165444 
L 216.520965 303.794404 
L 224.802968 299.423364 
L 233.084972 295.052325 
L 241.366976 290.681285 
L 249.64898 286.310245 
L 257.930983 281.939205 
L 266.212987 277.568166 
L 274.494991 273.197126 
L 282.776994 268.826086 
L 291.058998 264.455046 
L 299.341002 260.084007 
L 307.623006 255.712967 
L 315.905009 251.341927 
L 324.187013 246.970888 
L 332.469017 242.599848 
L 340.75102 238.228808 
L 349.033024 233.857768 
L 357.315028 229.486729 
L 365.597032 225.115689 
L 373.879035 220.744649 
L 382.161039 216.373609 
L 390.443043 212.00257 
L 398.725046 207.63153 
L 407.00705 203.26049 
L 415.289054 198.889451 
L 423.571058 194.518411 
L 431.853061 190.147371 
L 440.135065 185.776331 
L 448.417069 181.405292 
L 456.699072 177.034252 
L 464.981076 172.663212 
L 473.26308 168.292172 
L 481.545083 163.921133 
L 489.827087 159.550093 
L 498.109091 155.179053 
" clip-path="url(#pa802b299a6)" style="fill: none; stroke: #0000ff; stroke-width: 0.5; stroke-linecap: square"/>
   </g>
   <g id="line2d_40">
    <path d="M 92.290909 301.761263 
L 100.572913 299.842372 
L 108.854917 297.92348 
L 117.13692 296.004589 
L 125.418924 294.085698 
L 133.700928 292.166807 
L 141.982931 290.247916 
L 150.264935 288.329024 
L 158.546939 286.410133 
L 166.828942 284.491242 
L 175.110946 282.572351 
L 183.39295 280.65346 
L 191.674954 278.734568 
L 199.956957 276.815677 
L 208.238961 274.896786 
L 216.520965 272.977895 
L 224.802968 271.059004 
L 233.084972 269.140112 
L 241.366976 267.221221 
L 249.64898 265.30233 
L 257.930983 263.383439 
L 266.212987 261.464547 
L 274.494991 259.545656 
L 282.776994 257.626765 
L 291.058998 255.707874 
L 299.341002 253.788983 
L 307.623006 251.870091 
L 315.905009 249.9512 
L 324.187013 248.032309 
L 332.469017 246.113418 
L 340.75102 244.194527 
L 349.033024 242.275635 
L 357.315028 240.356744 
L 365.597032 238.437853 
L 373.879035 236.518962 
L 382.161039 234.600071 
L 390.443043 232.681179 
L 398.725046 230.762288 
L 407.00705 228.843397 
L 415.289054 226.924506 
L 423.571058 225.005615 
L 431.853061 223.086723 
L 440.135065 221.167832 
L 448.417069 219.248941 
L 456.699072 217.33005 
L 464.981076 215.411159 
L 473.26308 213.492267 
L 481.545083 211.573376 
L 489.827087 209.654485 
L 498.109091 207.735594 
" clip-path="url(#pa802b299a6)" style="fill: none; stroke: #0000ff; stroke-width: 0.5; stroke-linecap: square"/>
   </g>
   <g id="line2d_41">
    <path d="M 92.290909 286.508988 
L 100.572913 284.076488 
L 108.854917 281.643989 
L 117.13692 279.211489 
L 125.418924 276.778989 
L 133.700928 274.34649 
L 141.982931 271.91399 
L 150.264935 269.48149 
L 158.546939 267.04899 
L 166.828942 264.616491 
L 175.110946 262.183991 
L 183.39295 259.751491 
L 191.674954 257.318992 
L 199.956957 254.886492 
L 208.238961 252.453992 
L 216.520965 250.021493 
L 224.802968 247.588993 
L 233.084972 245.156493 
L 241.366976 242.723994 
L 249.64898 240.291494 
L 257.930983 237.858994 
L 266.212987 235.426495 
L 274.494991 232.993995 
L 282.776994 230.561495 
L 291.058998 228.128995 
L 299.341002 225.696496 
L 307.623006 223.263996 
L 315.905009 220.831496 
L 324.187013 218.398997 
L 332.469017 215.966497 
L 340.75102 213.533997 
L 349.033024 211.101498 
L 357.315028 208.668998 
L 365.597032 206.236498 
L 373.879035 203.803999 
L 382.161039 201.371499 
L 390.443043 198.938999 
L 398.725046 196.5065 
L 407.00705 194.074 
L 415.289054 191.6415 
L 423.571058 189.209 
L 431.853061 186.776501 
L 440.135065 184.344001 
L 448.417069 181.911501 
L 456.699072 179.479002 
L 464.981076 177.046502 
L 473.26308 174.614002 
L 481.545083 172.181503 
L 489.827087 169.749003 
L 498.109091 167.316503 
" clip-path="url(#pa802b299a6)" style="fill: none; stroke: #0000ff; stroke-width: 0.5; stroke-linecap: square"/>
   </g>
   <g id="line2d_42">
    <path d="M 92.290909 275.954837 
L 100.572913 273.903605 
L 108.854917 271.852372 
L 117.13692 269.80114 
L 125.418924 267.749907 
L 133.700928 265.698675 
L 141.982931 263.647442 
L 150.264935 261.59621 
L 158.546939 259.544977 
L 166.828942 257.493745 
L 175.110946 255.442512 
L 183.39295 253.39128 
L 191.674954 251.340047 
L 199.956957 249.288815 
L 208.238961 247.237582 
L 216.520965 245.18635 
L 224.802968 243.135117 
L 233.084972 241.083885 
L 241.366976 239.032652 
L 249.64898 236.98142 
L 257.930983 234.930187 
L 266.212987 232.878955 
L 274.494991 230.827722 
L 282.776994 228.77649 
L 291.058998 226.725257 
L 299.341002 224.674025 
L 307.623006 222.622792 
L 315.905009 220.57156 
L 324.187013 218.520327 
L 332.469017 216.469095 
L 340.75102 214.417862 
L 349.033024 212.36663 
L 357.315028 210.315397 
L 365.597032 208.264165 
L 373.879035 206.212932 
L 382.161039 204.1617 
L 390.443043 202.110467 
L 398.725046 200.059235 
L 407.00705 198.008002 
L 415.289054 195.95677 
L 423.571058 193.905537 
L 431.853061 191.854305 
L 440.135065 189.803072 
L 448.417069 187.75184 
L 456.699072 185.700607 
L 464.981076 183.649375 
L 473.26308 181.598142 
L 481.545083 179.54691 
L 489.827087 177.495677 
L 498.109091 175.444445 
" clip-path="url(#pa802b299a6)" style="fill: none; stroke: #0000ff; stroke-width: 0.5; stroke-linecap: square"/>
   </g>
   <g id="line2d_43">
    <path d="M 92.290909 284.404066 
L 100.572913 282.898009 
L 108.854917 281.391952 
L 117.13692 279.885894 
L 125.418924 278.379837 
L 133.700928 276.87378 
L 141.982931 275.367723 
L 150.264935 273.861665 
L 158.546939 272.355608 
L 166.828942 270.849551 
L 175.110946 269.343493 
L 183.39295 267.837436 
L 191.674954 266.331379 
L 199.956957 264.825321 
L 208.238961 263.319264 
L 216.520965 261.813207 
L 224.802968 260.30715 
L 233.084972 258.801092 
L 241.366976 257.295035 
L 249.64898 255.788978 
L 257.930983 254.28292 
L 266.212987 252.776863 
L 274.494991 251.270806 
L 282.776994 249.764748 
L 291.058998 248.258691 
L 299.341002 246.752634 
L 307.623006 245.246577 
L 315.905009 243.740519 
L 324.187013 242.234462 
L 332.469017 240.728405 
L 340.75102 239.222347 
L 349.033024 237.71629 
L 357.315028 236.210233 
L 365.597032 234.704175 
L 373.879035 233.198118 
L 382.161039 231.692061 
L 390.443043 230.186004 
L 398.725046 228.679946 
L 407.00705 227.173889 
L 415.289054 225.667832 
L 423.571058 224.161774 
L 431.853061 222.655717 
L 440.135065 221.14966 
L 448.417069 219.643603 
L 456.699072 218.137545 
L 464.981076 216.631488 
L 473.26308 215.125431 
L 481.545083 213.619373 
L 489.827087 212.113316 
L 498.109091 210.607259 
" clip-path="url(#pa802b299a6)" style="fill: none; stroke: #0000ff; stroke-width: 0.5; stroke-linecap: square"/>
   </g>
   <g id="line2d_44">
    <path d="M 92.290909 288.934231 
L 100.572913 286.926486 
L 108.854917 284.918742 
L 117.13692 282.910997 
L 125.418924 280.903253 
L 133.700928 278.895508 
L 141.982931 276.887764 
L 150.264935 274.880019 
L 158.546939 272.872275 
L 166.828942 270.86453 
L 175.110946 268.856786 
L 183.39295 266.849041 
L 191.674954 264.841297 
L 199.956957 262.833552 
L 208.238961 260.825808 
L 216.520965 258.818063 
L 224.802968 256.810319 
L 233.084972 254.802574 
L 241.366976 252.794829 
L 249.64898 250.787085 
L 257.930983 248.77934 
L 266.212987 246.771596 
L 274.494991 244.763851 
L 282.776994 242.756107 
L 291.058998 240.748362 
L 299.341002 238.740618 
L 307.623006 236.732873 
L 315.905009 234.725129 
L 324.187013 232.717384 
L 332.469017 230.70964 
L 340.75102 228.701895 
L 349.033024 226.694151 
L 357.315028 224.686406 
L 365.597032 222.678661 
L 373.879035 220.670917 
L 382.161039 218.663172 
L 390.443043 216.655428 
L 398.725046 214.647683 
L 407.00705 212.639939 
L 415.289054 210.632194 
L 423.571058 208.62445 
L 431.853061 206.616705 
L 440.135065 204.608961 
L 448.417069 202.601216 
L 456.699072 200.593472 
L 464.981076 198.585727 
L 473.26308 196.577983 
L 481.545083 194.570238 
L 489.827087 192.562493 
L 498.109091 190.554749 
" clip-path="url(#pa802b299a6)" style="fill: none; stroke: #0000ff; stroke-width: 0.5; stroke-linecap: square"/>
   </g>
   <g id="line2d_45">
    <path d="M 92.290909 280.685829 
L 100.572913 279.044258 
L 108.854917 277.402686 
L 117.13692 275.761115 
L 125.418924 274.119544 
L 133.700928 272.477972 
L 141.982931 270.836401 
L 150.264935 269.19483 
L 158.546939 267.553258 
L 166.828942 265.911687 
L 175.110946 264.270115 
L 183.39295 262.628544 
L 191.674954 260.986973 
L 199.956957 259.345401 
L 208.238961 257.70383 
L 216.520965 256.062259 
L 224.802968 254.420687 
L 233.084972 252.779116 
L 241.366976 251.137544 
L 249.64898 249.495973 
L 257.930983 247.854402 
L 266.212987 246.21283 
L 274.494991 244.571259 
L 282.776994 242.929687 
L 291.058998 241.288116 
L 299.341002 239.646545 
L 307.623006 238.004973 
L 315.905009 236.363402 
L 324.187013 234.721831 
L 332.469017 233.080259 
L 340.75102 231.438688 
L 349.033024 229.797116 
L 357.315028 228.155545 
L 365.597032 226.513974 
L 373.879035 224.872402 
L 382.161039 223.230831 
L 390.443043 221.58926 
L 398.725046 219.947688 
L 407.00705 218.306117 
L 415.289054 216.664545 
L 423.571058 215.022974 
L 431.853061 213.381403 
L 440.135065 211.739831 
L 448.417069 210.09826 
L 456.699072 208.456688 
L 464.981076 206.815117 
L 473.26308 205.173546 
L 481.545083 203.531974 
L 489.827087 201.890403 
L 498.109091 200.248832 
" clip-path="url(#pa802b299a6)" style="fill: none; stroke: #0000ff; stroke-width: 0.5; stroke-linecap: square"/>
   </g>
   <g id="line2d_46">
    <path d="M 92.290909 268.395757 
L 100.572913 267.006808 
L 108.854917 265.617859 
L 117.13692 264.22891 
L 125.418924 262.83996 
L 133.700928 261.451011 
L 141.982931 260.062062 
L 150.264935 258.673113 
L 158.546939 257.284164 
L 166.828942 255.895215 
L 175.110946 254.506265 
L 183.39295 253.117316 
L 191.674954 251.728367 
L 199.956957 250.339418 
L 208.238961 248.950469 
L 216.520965 247.561519 
L 224.802968 246.17257 
L 233.084972 244.783621 
L 241.366976 243.394672 
L 249.64898 242.005723 
L 257.930983 240.616774 
L 266.212987 239.227824 
L 274.494991 237.838875 
L 282.776994 236.449926 
L 291.058998 235.060977 
L 299.341002 233.672028 
L 307.623006 232.283079 
L 315.905009 230.894129 
L 324.187013 229.50518 
L 332.469017 228.116231 
L 340.75102 226.727282 
L 349.033024 225.338333 
L 357.315028 223.949383 
L 365.597032 222.560434 
L 373.879035 221.171485 
L 382.161039 219.782536 
L 390.443043 218.393587 
L 398.725046 217.004638 
L 407.00705 215.615688 
L 415.289054 214.226739 
L 423.571058 212.83779 
L 431.853061 211.448841 
L 440.135065 210.059892 
L 448.417069 208.670943 
L 456.699072 207.281993 
L 464.981076 205.893044 
L 473.26308 204.504095 
L 481.545083 203.115146 
L 489.827087 201.726197 
L 498.109091 200.337247 
" clip-path="url(#pa802b299a6)" style="fill: none; stroke: #0000ff; stroke-width: 0.5; stroke-linecap: square"/>
   </g>
   <g id="line2d_47">
    <path d="M 92.290909 276.364415 
L 100.572913 275.106491 
L 108.854917 273.848567 
L 117.13692 272.590644 
L 125.418924 271.33272 
L 133.700928 270.074796 
L 141.982931 268.816872 
L 150.264935 267.558948 
L 158.546939 266.301024 
L 166.828942 265.043101 
L 175.110946 263.785177 
L 183.39295 262.527253 
L 191.674954 261.269329 
L 199.956957 260.011405 
L 208.238961 258.753481 
L 216.520965 257.495558 
L 224.802968 256.237634 
L 233.084972 254.97971 
L 241.366976 253.721786 
L 249.64898 252.463862 
L 257.930983 251.205938 
L 266.212987 249.948015 
L 274.494991 248.690091 
L 282.776994 247.432167 
L 291.058998 246.174243 
L 299.341002 244.916319 
L 307.623006 243.658395 
L 315.905009 242.400472 
L 324.187013 241.142548 
L 332.469017 239.884624 
L 340.75102 238.6267 
L 349.033024 237.368776 
L 357.315028 236.110852 
L 365.597032 234.852929 
L 373.879035 233.595005 
L 382.161039 232.337081 
L 390.443043 231.079157 
L 398.725046 229.821233 
L 407.00705 228.563309 
L 415.289054 227.305386 
L 423.571058 226.047462 
L 431.853061 224.789538 
L 440.135065 223.531614 
L 448.417069 222.27369 
L 456.699072 221.015766 
L 464.981076 219.757843 
L 473.26308 218.499919 
L 481.545083 217.241995 
L 489.827087 215.984071 
L 498.109091 214.726147 
" clip-path="url(#pa802b299a6)" style="fill: none; stroke: #0000ff; stroke-width: 0.5; stroke-linecap: square"/>
   </g>
   <g id="line2d_48">
    <path d="M 92.290909 279.200211 
L 100.572913 278.15888 
L 108.854917 277.117549 
L 117.13692 276.076218 
L 125.418924 275.034887 
L 133.700928 273.993556 
L 141.982931 272.952225 
L 150.264935 271.910894 
L 158.546939 270.869563 
L 166.828942 269.828232 
L 175.110946 268.786901 
L 183.39295 267.745569 
L 191.674954 266.704238 
L 199.956957 265.662907 
L 208.238961 264.621576 
L 216.520965 263.580245 
L 224.802968 262.538914 
L 233.084972 261.497583 
L 241.366976 260.456252 
L 249.64898 259.414921 
L 257.930983 258.37359 
L 266.212987 257.332259 
L 274.494991 256.290928 
L 282.776994 255.249597 
L 291.058998 254.208266 
L 299.341002 253.166935 
L 307.623006 252.125604 
L 315.905009 251.084273 
L 324.187013 250.042942 
L 332.469017 249.001611 
L 340.75102 247.960279 
L 349.033024 246.918948 
L 357.315028 245.877617 
L 365.597032 244.836286 
L 373.879035 243.794955 
L 382.161039 242.753624 
L 390.443043 241.712293 
L 398.725046 240.670962 
L 407.00705 239.629631 
L 415.289054 238.5883 
L 423.571058 237.546969 
L 431.853061 236.505638 
L 440.135065 235.464307 
L 448.417069 234.422976 
L 456.699072 233.381645 
L 464.981076 232.340314 
L 473.26308 231.298983 
L 481.545083 230.257652 
L 489.827087 229.216321 
L 498.109091 228.174989 
" clip-path="url(#pa802b299a6)" style="fill: none; stroke: #0000ff; stroke-width: 0.5; stroke-linecap: square"/>
   </g>
   <g id="line2d_49">
    <path d="M 92.290909 310.602861 
L 100.572913 307.86486 
L 108.854917 305.126859 
L 117.13692 302.388858 
L 125.418924 299.650857 
L 133.700928 296.912856 
L 141.982931 294.174855 
L 150.264935 291.436853 
L 158.546939 288.698852 
L 166.828942 285.960851 
L 175.110946 283.22285 
L 183.39295 280.484849 
L 191.674954 277.746848 
L 199.956957 275.008847 
L 208.238961 272.270845 
L 216.520965 269.532844 
L 224.802968 266.794843 
L 233.084972 264.056842 
L 241.366976 261.318841 
L 249.64898 258.58084 
L 257.930983 255.842839 
L 266.212987 253.104837 
L 274.494991 250.366836 
L 282.776994 247.628835 
L 291.058998 244.890834 
L 299.341002 242.152833 
L 307.623006 239.414832 
L 315.905009 236.676831 
L 324.187013 233.938829 
L 332.469017 231.200828 
L 340.75102 228.462827 
L 349.033024 225.724826 
L 357.315028 222.986825 
L 365.597032 220.248824 
L 373.879035 217.510823 
L 382.161039 214.772821 
L 390.443043 212.03482 
L 398.725046 209.296819 
L 407.00705 206.558818 
L 415.289054 203.820817 
L 423.571058 201.082816 
L 431.853061 198.344815 
L 440.135065 195.606813 
L 448.417069 192.868812 
L 456.699072 190.130811 
L 464.981076 187.39281 
L 473.26308 184.654809 
L 481.545083 181.916808 
L 489.827087 179.178807 
L 498.109091 176.440805 
" clip-path="url(#pa802b299a6)" style="fill: none; stroke: #0000ff; stroke-width: 0.5; stroke-linecap: square"/>
   </g>
   <g id="line2d_50">
    <path d="M 92.290909 314.58534 
L 100.572913 311.940934 
L 108.854917 309.296529 
L 117.13692 306.652124 
L 125.418924 304.007718 
L 133.700928 301.363313 
L 141.982931 298.718907 
L 150.264935 296.074502 
L 158.546939 293.430096 
L 166.828942 290.785691 
L 175.110946 288.141285 
L 183.39295 285.49688 
L 191.674954 282.852474 
L 199.956957 280.208069 
L 208.238961 277.563664 
L 216.520965 274.919258 
L 224.802968 272.274853 
L 233.084972 269.630447 
L 241.366976 266.986042 
L 249.64898 264.341636 
L 257.930983 261.697231 
L 266.212987 259.052825 
L 274.494991 256.40842 
L 282.776994 253.764014 
L 291.058998 251.119609 
L 299.341002 248.475204 
L 307.623006 245.830798 
L 315.905009 243.186393 
L 324.187013 240.541987 
L 332.469017 237.897582 
L 340.75102 235.253176 
L 349.033024 232.608771 
L 357.315028 229.964365 
L 365.597032 227.31996 
L 373.879035 224.675554 
L 382.161039 222.031149 
L 390.443043 219.386744 
L 398.725046 216.742338 
L 407.00705 214.097933 
L 415.289054 211.453527 
L 423.571058 208.809122 
L 431.853061 206.164716 
L 440.135065 203.520311 
L 448.417069 200.875905 
L 456.699072 198.2315 
L 464.981076 195.587094 
L 473.26308 192.942689 
L 481.545083 190.298284 
L 489.827087 187.653878 
L 498.109091 185.009473 
" clip-path="url(#pa802b299a6)" style="fill: none; stroke: #0000ff; stroke-width: 0.5; stroke-linecap: square"/>
   </g>
   <g id="line2d_51">
    <path d="M 92.290909 329.112672 
L 100.572913 325.727922 
L 108.854917 322.343172 
L 117.13692 318.958423 
L 125.418924 315.573673 
L 133.700928 312.188923 
L 141.982931 308.804174 
L 150.264935 305.419424 
L 158.546939 302.034674 
L 166.828942 298.649924 
L 175.110946 295.265175 
L 183.39295 291.880425 
L 191.674954 288.495675 
L 199.956957 285.110926 
L 208.238961 281.726176 
L 216.520965 278.341426 
L 224.802968 274.956676 
L 233.084972 271.571927 
L 241.366976 268.187177 
L 249.64898 264.802427 
L 257.930983 261.417677 
L 266.212987 258.032928 
L 274.494991 254.648178 
L 282.776994 251.263428 
L 291.058998 247.878679 
L 299.341002 244.493929 
L 307.623006 241.109179 
L 315.905009 237.724429 
L 324.187013 234.33968 
L 332.469017 230.95493 
L 340.75102 227.57018 
L 349.033024 224.185431 
L 357.315028 220.800681 
L 365.597032 217.415931 
L 373.879035 214.031181 
L 382.161039 210.646432 
L 390.443043 207.261682 
L 398.725046 203.876932 
L 407.00705 200.492182 
L 415.289054 197.107433 
L 423.571058 193.722683 
L 431.853061 190.337933 
L 440.135065 186.953184 
L 448.417069 183.568434 
L 456.699072 180.183684 
L 464.981076 176.798934 
L 473.26308 173.414185 
L 481.545083 170.029435 
L 489.827087 166.644685 
L 498.109091 163.259936 
" clip-path="url(#pa802b299a6)" style="fill: none; stroke: #0000ff; stroke-width: 0.5; stroke-linecap: square"/>
   </g>
   <g id="line2d_52">
    <path d="M 92.290909 326.23315 
L 100.572913 322.74846 
L 108.854917 319.263769 
L 117.13692 315.779079 
L 125.418924 312.294389 
L 133.700928 308.809698 
L 141.982931 305.325008 
L 150.264935 301.840318 
L 158.546939 298.355627 
L 166.828942 294.870937 
L 175.110946 291.386246 
L 183.39295 287.901556 
L 191.674954 284.416866 
L 199.956957 280.932175 
L 208.238961 277.447485 
L 216.520965 273.962795 
L 224.802968 270.478104 
L 233.084972 266.993414 
L 241.366976 263.508723 
L 249.64898 260.024033 
L 257.930983 256.539343 
L 266.212987 253.054652 
L 274.494991 249.569962 
L 282.776994 246.085271 
L 291.058998 242.600581 
L 299.341002 239.115891 
L 307.623006 235.6312 
L 315.905009 232.14651 
L 324.187013 228.66182 
L 332.469017 225.177129 
L 340.75102 221.692439 
L 349.033024 218.207748 
L 357.315028 214.723058 
L 365.597032 211.238368 
L 373.879035 207.753677 
L 382.161039 204.268987 
L 390.443043 200.784297 
L 398.725046 197.299606 
L 407.00705 193.814916 
L 415.289054 190.330225 
L 423.571058 186.845535 
L 431.853061 183.360845 
L 440.135065 179.876154 
L 448.417069 176.391464 
L 456.699072 172.906773 
L 464.981076 169.422083 
L 473.26308 165.937393 
L 481.545083 162.452702 
L 489.827087 158.968012 
L 498.109091 155.483322 
" clip-path="url(#pa802b299a6)" style="fill: none; stroke: #0000ff; stroke-width: 0.5; stroke-linecap: square"/>
   </g>
   <g id="line2d_53">
    <path d="M 92.290909 310.407239 
L 100.572913 307.259911 
L 108.854917 304.112584 
L 117.13692 300.965256 
L 125.418924 297.817928 
L 133.700928 294.6706 
L 141.982931 291.523273 
L 150.264935 288.375945 
L 158.546939 285.228617 
L 166.828942 282.081289 
L 175.110946 278.933962 
L 183.39295 275.786634 
L 191.674954 272.639306 
L 199.956957 269.491978 
L 208.238961 266.34465 
L 216.520965 263.197323 
L 224.802968 260.049995 
L 233.084972 256.902667 
L 241.366976 253.755339 
L 249.64898 250.608012 
L 257.930983 247.460684 
L 266.212987 244.313356 
L 274.494991 241.166028 
L 282.776994 238.018701 
L 291.058998 234.871373 
L 299.341002 231.724045 
L 307.623006 228.576717 
L 315.905009 225.42939 
L 324.187013 222.282062 
L 332.469017 219.134734 
L 340.75102 215.987406 
L 349.033024 212.840079 
L 357.315028 209.692751 
L 365.597032 206.545423 
L 373.879035 203.398095 
L 382.161039 200.250768 
L 390.443043 197.10344 
L 398.725046 193.956112 
L 407.00705 190.808784 
L 415.289054 187.661457 
L 423.571058 184.514129 
L 431.853061 181.366801 
L 440.135065 178.219473 
L 448.417069 175.072146 
L 456.699072 171.924818 
L 464.981076 168.77749 
L 473.26308 165.630162 
L 481.545083 162.482835 
L 489.827087 159.335507 
L 498.109091 156.188179 
" clip-path="url(#pa802b299a6)" style="fill: none; stroke: #0000ff; stroke-width: 0.5; stroke-linecap: square"/>
   </g>
   <g id="patch_3">
    <path d="M 72 384.48 
L 72 51.84 
" style="fill: none; stroke: #000000; stroke-width: 0.8; stroke-linejoin: miter; stroke-linecap: square"/>
   </g>
   <g id="patch_4">
    <path d="M 518.4 384.48 
L 518.4 51.84 
" style="fill: none; stroke: #000000; stroke-width: 0.8; stroke-linejoin: miter; stroke-linecap: square"/>
   </g>
   <g id="patch_5">
    <path d="M 72 384.48 
L 518.4 384.48 
" style="fill: none; stroke: #000000; stroke-width: 0.8; stroke-linejoin: miter; stroke-linecap: square"/>
   </g>
   <g id="patch_6">
    <path d="M 72 51.84 
L 518.4 51.84 
" style="fill: none; stroke: #000000; stroke-width: 0.8; stroke-linejoin: miter; stroke-linecap: square"/>
   </g>
  </g>
 </g>
 <defs>
  <clipPath id="pa802b299a6">
   <rect x="72" y="51.84" width="446.4" height="332.64"/>
  </clipPath>
 </defs>
</svg>
